<svg width="1018" height="243" viewBox="0 0 1018 243" fill="none" xmlns="http://www.w3.org/2000/svg">
<rect width="1018" height="243" rx="24" fill="#64CCC5"/>
<path d="M43.96 81C44.5733 82.0667 45.2267 83.0133 45.92 83.84C46.64 84.64 47.4267 85.2667 48.28 85.72C49.1333 86.1467 50.0933 86.36 51.16 86.36C52.44 86.36 53.48 86.0133 54.28 85.32C55.08 84.6267 55.48 83.7333 55.48 82.64C55.48 81.6 55.2267 80.7733 54.72 80.16C54.2133 79.52 53.5067 78.9867 52.6 78.56C51.72 78.1067 50.6933 77.6667 49.52 77.24C48.8267 77 48.0533 76.68 47.2 76.28C46.3467 75.8533 45.5333 75.3333 44.76 74.72C43.9867 74.08 43.3467 73.3067 42.84 72.4C42.3333 71.4667 42.08 70.3467 42.08 69.04C42.08 67.5467 42.4667 66.24 43.24 65.12C44.0133 63.9733 45.0533 63.0933 46.36 62.48C47.6933 61.84 49.2 61.52 50.88 61.52C52.5333 61.52 53.9733 61.8133 55.2 62.4C56.4267 62.9867 57.4533 63.7333 58.28 64.64C59.1333 65.5467 59.8 66.4933 60.28 67.48L56.44 69.64C56.0933 68.9467 55.6533 68.3067 55.12 67.72C54.5867 67.1067 53.96 66.6267 53.24 66.28C52.5467 65.9067 51.7333 65.72 50.8 65.72C49.4933 65.72 48.5333 66.0267 47.92 66.64C47.3067 67.2267 47 67.92 47 68.72C47 69.44 47.2133 70.0933 47.64 70.68C48.0933 71.24 48.7867 71.7733 49.72 72.28C50.6533 72.7867 51.8667 73.3067 53.36 73.84C54.1867 74.1333 55.0133 74.5067 55.84 74.96C56.6933 75.4133 57.4667 75.9867 58.16 76.68C58.8533 77.3467 59.4 78.1333 59.8 79.04C60.2267 79.9467 60.44 81.0133 60.44 82.24C60.44 83.5467 60.1867 84.72 59.68 85.76C59.1733 86.8 58.48 87.68 57.6 88.4C56.72 89.0933 55.72 89.6267 54.6 90C53.5067 90.4 52.36 90.6 51.16 90.6C49.5067 90.6 47.9733 90.28 46.56 89.64C45.1733 88.9733 43.96 88.0933 42.92 87C41.88 85.9067 41.0533 84.72 40.44 83.44L43.96 81ZM72.9241 90.4C71.0574 90.4 69.4041 90 67.9641 89.2C66.5507 88.4 65.4574 87.28 64.6841 85.84C63.9107 84.4 63.5241 82.72 63.5241 80.8C63.5241 78.8533 63.9107 77.16 64.6841 75.72C65.4841 74.28 66.6041 73.1733 68.0441 72.4C69.4841 71.6 71.1774 71.2 73.1241 71.2C75.0707 71.2 76.7241 71.5733 78.0841 72.32C79.4441 73.0667 80.4841 74.1467 81.2041 75.56C81.9507 76.9467 82.3241 78.6267 82.3241 80.6C82.3241 80.8133 82.3107 81.04 82.2841 81.28C82.2841 81.52 82.2707 81.6933 82.2441 81.8H66.0841V78.84H78.5641L77.2441 80.68C77.3241 80.52 77.4041 80.3067 77.4841 80.04C77.5907 79.7467 77.6441 79.5067 77.6441 79.32C77.6441 78.3333 77.4441 77.48 77.0441 76.76C76.6707 76.04 76.1374 75.48 75.4441 75.08C74.7774 74.68 73.9907 74.48 73.0841 74.48C71.9907 74.48 71.0574 74.72 70.2841 75.2C69.5107 75.68 68.9241 76.3733 68.5241 77.28C68.1241 78.1867 67.9107 79.3067 67.8841 80.64C67.8841 81.9733 68.0841 83.1067 68.4841 84.04C68.8841 84.9467 69.4707 85.64 70.2441 86.12C71.0441 86.6 72.0041 86.84 73.1241 86.84C74.2974 86.84 75.3241 86.6 76.2041 86.12C77.0841 85.64 77.8174 84.9067 78.4041 83.92L82.1241 85.44C81.1641 87.0933 79.9241 88.3333 78.4041 89.16C76.8841 89.9867 75.0574 90.4 72.9241 90.4ZM112.768 78.32V90H108.448V78.8C108.448 77.4133 108.194 76.3867 107.688 75.72C107.208 75.0267 106.434 74.68 105.368 74.68C104.648 74.68 104.008 74.84 103.448 75.16C102.914 75.48 102.488 75.9467 102.168 76.56C101.874 77.1733 101.728 77.92 101.728 78.8V90H97.4075V78.8C97.4075 77.4133 97.1542 76.3867 96.6475 75.72C96.1675 75.0267 95.3942 74.68 94.3275 74.68C93.5808 74.68 92.9275 74.84 92.3675 75.16C91.8342 75.48 91.4208 75.9467 91.1275 76.56C90.8342 77.1733 90.6875 77.92 90.6875 78.8V90H86.4475V71.6H90.6875V74.28C91.2208 73.2667 91.9142 72.5067 92.7675 72C93.6475 71.4667 94.6742 71.2 95.8475 71.2C97.2075 71.2 98.3275 71.48 99.2075 72.04C100.114 72.6 100.768 73.4133 101.168 74.48C101.808 73.4133 102.608 72.6 103.568 72.04C104.554 71.48 105.674 71.2 106.928 71.2C108.234 71.2 109.314 71.48 110.168 72.04C111.048 72.5733 111.701 73.3733 112.128 74.44C112.554 75.5067 112.768 76.8 112.768 78.32ZM121.003 84.28C121.003 84.8933 121.15 85.4267 121.443 85.88C121.737 86.3067 122.137 86.6267 122.643 86.84C123.177 87.0533 123.777 87.16 124.443 87.16C125.297 87.16 126.07 86.9867 126.763 86.64C127.483 86.2933 128.057 85.7867 128.483 85.12C128.937 84.4267 129.163 83.6267 129.163 82.72L129.803 85.12C129.803 86.2933 129.457 87.28 128.763 88.08C128.097 88.8533 127.243 89.44 126.203 89.84C125.19 90.2133 124.15 90.4 123.083 90.4C121.937 90.4 120.87 90.1733 119.883 89.72C118.897 89.2667 118.11 88.6 117.523 87.72C116.937 86.84 116.643 85.7733 116.643 84.52C116.643 82.7333 117.27 81.32 118.523 80.28C119.777 79.2133 121.55 78.68 123.843 78.68C125.07 78.68 126.123 78.8133 127.003 79.08C127.91 79.3467 128.657 79.6667 129.243 80.04C129.83 80.3867 130.243 80.7067 130.483 81V83.2C129.657 82.6133 128.777 82.1867 127.843 81.92C126.91 81.6533 125.923 81.52 124.883 81.52C123.977 81.52 123.243 81.64 122.683 81.88C122.123 82.0933 121.697 82.4 121.403 82.8C121.137 83.2 121.003 83.6933 121.003 84.28ZM119.643 76.4L117.883 73.36C118.71 72.8533 119.777 72.36 121.083 71.88C122.417 71.4 123.937 71.16 125.643 71.16C127.163 71.16 128.497 71.3867 129.643 71.84C130.817 72.2933 131.737 72.9467 132.403 73.8C133.07 74.6267 133.403 75.6533 133.403 76.88V90H129.163V77.72C129.163 77.1333 129.057 76.6533 128.843 76.28C128.657 75.9067 128.39 75.6 128.043 75.36C127.697 75.12 127.283 74.9467 126.803 74.84C126.323 74.7333 125.803 74.68 125.243 74.68C124.39 74.68 123.577 74.7867 122.803 75C122.057 75.1867 121.403 75.4267 120.843 75.72C120.31 75.9867 119.91 76.2133 119.643 76.4ZM150.28 78.8C150.28 77.44 150 76.4133 149.44 75.72C148.88 75.0267 148.013 74.68 146.84 74.68C146.04 74.68 145.333 74.8533 144.72 75.2C144.106 75.52 143.626 76 143.28 76.64C142.933 77.2533 142.76 77.9733 142.76 78.8V90H138.44V71.6H142.76V74.44C143.346 73.3467 144.093 72.5333 145 72C145.933 71.4667 147.04 71.2 148.32 71.2C150.4 71.2 151.986 71.84 153.08 73.12C154.173 74.3733 154.72 76.1067 154.72 78.32V90H150.28V78.8ZM159.197 91.24H163.477C163.503 92.0667 163.73 92.8133 164.157 93.48C164.61 94.1467 165.223 94.6667 165.997 95.04C166.77 95.4133 167.663 95.6 168.677 95.6C169.583 95.6 170.45 95.3867 171.277 94.96C172.103 94.5333 172.77 93.88 173.277 93C173.81 92.12 174.077 90.9867 174.077 89.6V71.6H178.317V89.6C178.317 91.8133 177.863 93.64 176.957 95.08C176.077 96.52 174.917 97.5867 173.477 98.28C172.037 99 170.477 99.36 168.797 99.36C166.797 99.36 165.09 99.0133 163.677 98.32C162.263 97.6533 161.17 96.7067 160.397 95.48C159.65 94.2533 159.25 92.84 159.197 91.24ZM158.837 80.72C158.837 78.6667 159.25 76.9467 160.077 75.56C160.903 74.1467 161.997 73.0667 163.357 72.32C164.743 71.5733 166.223 71.2 167.797 71.2C169.343 71.2 170.69 71.5867 171.837 72.36C173.01 73.1067 173.93 74.1867 174.597 75.6C175.29 77.0133 175.637 78.72 175.637 80.72C175.637 82.6933 175.29 84.3867 174.597 85.8C173.93 87.2133 173.01 88.3067 171.837 89.08C170.69 89.8267 169.343 90.2 167.797 90.2C166.223 90.2 164.743 89.8267 163.357 89.08C161.997 88.3333 160.903 87.2533 160.077 85.84C159.25 84.4267 158.837 82.72 158.837 80.72ZM163.317 80.72C163.317 81.9467 163.57 82.9867 164.077 83.84C164.583 84.6933 165.25 85.3467 166.077 85.8C166.93 86.2267 167.85 86.44 168.837 86.44C169.663 86.44 170.477 86.2267 171.277 85.8C172.103 85.3733 172.77 84.7333 173.277 83.88C173.81 83 174.077 81.9467 174.077 80.72C174.077 79.76 173.917 78.9333 173.597 78.24C173.303 77.52 172.903 76.92 172.397 76.44C171.89 75.9333 171.317 75.56 170.677 75.32C170.063 75.08 169.45 74.96 168.837 74.96C167.85 74.96 166.93 75.1867 166.077 75.64C165.25 76.0667 164.583 76.7067 164.077 77.56C163.57 78.4133 163.317 79.4667 163.317 80.72ZM186.394 84.28C186.394 84.8933 186.541 85.4267 186.834 85.88C187.127 86.3067 187.527 86.6267 188.034 86.84C188.567 87.0533 189.167 87.16 189.834 87.16C190.687 87.16 191.461 86.9867 192.154 86.64C192.874 86.2933 193.447 85.7867 193.874 85.12C194.327 84.4267 194.554 83.6267 194.554 82.72L195.194 85.12C195.194 86.2933 194.847 87.28 194.154 88.08C193.487 88.8533 192.634 89.44 191.594 89.84C190.581 90.2133 189.541 90.4 188.474 90.4C187.327 90.4 186.261 90.1733 185.274 89.72C184.287 89.2667 183.501 88.6 182.914 87.72C182.327 86.84 182.034 85.7733 182.034 84.52C182.034 82.7333 182.661 81.32 183.914 80.28C185.167 79.2133 186.941 78.68 189.234 78.68C190.461 78.68 191.514 78.8133 192.394 79.08C193.301 79.3467 194.047 79.6667 194.634 80.04C195.221 80.3867 195.634 80.7067 195.874 81V83.2C195.047 82.6133 194.167 82.1867 193.234 81.92C192.301 81.6533 191.314 81.52 190.274 81.52C189.367 81.52 188.634 81.64 188.074 81.88C187.514 82.0933 187.087 82.4 186.794 82.8C186.527 83.2 186.394 83.6933 186.394 84.28ZM185.034 76.4L183.274 73.36C184.101 72.8533 185.167 72.36 186.474 71.88C187.807 71.4 189.327 71.16 191.034 71.16C192.554 71.16 193.887 71.3867 195.034 71.84C196.207 72.2933 197.127 72.9467 197.794 73.8C198.461 74.6267 198.794 75.6533 198.794 76.88V90H194.554V77.72C194.554 77.1333 194.447 76.6533 194.234 76.28C194.047 75.9067 193.781 75.6 193.434 75.36C193.087 75.12 192.674 74.9467 192.194 74.84C191.714 74.7333 191.194 74.68 190.634 74.68C189.781 74.68 188.967 74.7867 188.194 75C187.447 75.1867 186.794 75.4267 186.234 75.72C185.701 75.9867 185.301 76.2133 185.034 76.4ZM201.27 71.6H211.71V75.4H201.27V71.6ZM204.35 65.2H208.63V90H204.35V65.2ZM230.882 58.8V90H226.522V58.8H230.882ZM246.122 80.8C246.122 82.8 245.709 84.52 244.882 85.96C244.055 87.4 242.962 88.5067 241.602 89.28C240.242 90.0267 238.762 90.4 237.162 90.4C235.642 90.4 234.282 90.0133 233.082 89.24C231.909 88.4667 230.989 87.36 230.322 85.92C229.655 84.48 229.322 82.7733 229.322 80.8C229.322 78.8 229.655 77.0933 230.322 75.68C230.989 74.24 231.909 73.1333 233.082 72.36C234.282 71.5867 235.642 71.2 237.162 71.2C238.762 71.2 240.242 71.5867 241.602 72.36C242.962 73.1067 244.055 74.2 244.882 75.64C245.709 77.0533 246.122 78.7733 246.122 80.8ZM241.642 80.8C241.642 79.5733 241.389 78.52 240.882 77.64C240.375 76.76 239.695 76.0933 238.842 75.64C238.015 75.1867 237.095 74.96 236.082 74.96C235.255 74.96 234.442 75.1867 233.642 75.64C232.842 76.0933 232.175 76.76 231.642 77.64C231.135 78.4933 230.882 79.5467 230.882 80.8C230.882 82.0533 231.135 83.12 231.642 84C232.175 84.8533 232.842 85.5067 233.642 85.96C234.442 86.4133 235.255 86.64 236.082 86.64C237.095 86.64 238.015 86.4133 238.842 85.96C239.695 85.5067 240.375 84.84 240.882 83.96C241.389 83.08 241.642 82.0267 241.642 80.8ZM258.237 90.4C256.37 90.4 254.717 90 253.277 89.2C251.863 88.4 250.77 87.28 249.997 85.84C249.223 84.4 248.837 82.72 248.837 80.8C248.837 78.8533 249.223 77.16 249.997 75.72C250.797 74.28 251.917 73.1733 253.357 72.4C254.797 71.6 256.49 71.2 258.437 71.2C260.383 71.2 262.037 71.5733 263.397 72.32C264.757 73.0667 265.797 74.1467 266.517 75.56C267.263 76.9467 267.637 78.6267 267.637 80.6C267.637 80.8133 267.623 81.04 267.597 81.28C267.597 81.52 267.583 81.6933 267.557 81.8H251.397V78.84H263.877L262.557 80.68C262.637 80.52 262.717 80.3067 262.797 80.04C262.903 79.7467 262.957 79.5067 262.957 79.32C262.957 78.3333 262.757 77.48 262.357 76.76C261.983 76.04 261.45 75.48 260.757 75.08C260.09 74.68 259.303 74.48 258.397 74.48C257.303 74.48 256.37 74.72 255.597 75.2C254.823 75.68 254.237 76.3733 253.837 77.28C253.437 78.1867 253.223 79.3067 253.197 80.64C253.197 81.9733 253.397 83.1067 253.797 84.04C254.197 84.9467 254.783 85.64 255.557 86.12C256.357 86.6 257.317 86.84 258.437 86.84C259.61 86.84 260.637 86.6 261.517 86.12C262.397 85.64 263.13 84.9067 263.717 83.92L267.437 85.44C266.477 87.0933 265.237 88.3333 263.717 89.16C262.197 89.9867 260.37 90.4 258.237 90.4ZM271.76 58.8H276.08V90H271.76V58.8ZM284.324 84.28C284.324 84.8933 284.47 85.4267 284.764 85.88C285.057 86.3067 285.457 86.6267 285.964 86.84C286.497 87.0533 287.097 87.16 287.764 87.16C288.617 87.16 289.39 86.9867 290.084 86.64C290.804 86.2933 291.377 85.7867 291.804 85.12C292.257 84.4267 292.484 83.6267 292.484 82.72L293.124 85.12C293.124 86.2933 292.777 87.28 292.084 88.08C291.417 88.8533 290.564 89.44 289.524 89.84C288.51 90.2133 287.47 90.4 286.404 90.4C285.257 90.4 284.19 90.1733 283.204 89.72C282.217 89.2667 281.43 88.6 280.844 87.72C280.257 86.84 279.964 85.7733 279.964 84.52C279.964 82.7333 280.59 81.32 281.844 80.28C283.097 79.2133 284.87 78.68 287.164 78.68C288.39 78.68 289.444 78.8133 290.324 79.08C291.23 79.3467 291.977 79.6667 292.564 80.04C293.15 80.3867 293.564 80.7067 293.804 81V83.2C292.977 82.6133 292.097 82.1867 291.164 81.92C290.23 81.6533 289.244 81.52 288.204 81.52C287.297 81.52 286.564 81.64 286.004 81.88C285.444 82.0933 285.017 82.4 284.724 82.8C284.457 83.2 284.324 83.6933 284.324 84.28ZM282.964 76.4L281.204 73.36C282.03 72.8533 283.097 72.36 284.404 71.88C285.737 71.4 287.257 71.16 288.964 71.16C290.484 71.16 291.817 71.3867 292.964 71.84C294.137 72.2933 295.057 72.9467 295.724 73.8C296.39 74.6267 296.724 75.6533 296.724 76.88V90H292.484V77.72C292.484 77.1333 292.377 76.6533 292.164 76.28C291.977 75.9067 291.71 75.6 291.364 75.36C291.017 75.12 290.604 74.9467 290.124 74.84C289.644 74.7333 289.124 74.68 288.564 74.68C287.71 74.68 286.897 74.7867 286.124 75C285.377 75.1867 284.724 75.4267 284.164 75.72C283.63 75.9867 283.23 76.2133 282.964 76.4ZM301.2 64.28C301.2 63.5333 301.467 62.92 302 62.44C302.533 61.9333 303.173 61.68 303.92 61.68C304.667 61.68 305.293 61.9333 305.8 62.44C306.333 62.92 306.6 63.5333 306.6 64.28C306.6 65 306.333 65.6133 305.8 66.12C305.293 66.6267 304.667 66.88 303.92 66.88C303.173 66.88 302.533 66.6267 302 66.12C301.467 65.6133 301.2 65 301.2 64.28ZM298.08 93.96C298.293 94.28 298.56 94.5333 298.88 94.72C299.2 94.9067 299.573 95 300 95C300.427 95 300.773 94.88 301.04 94.64C301.333 94.4267 301.547 94.08 301.68 93.6C301.84 93.12 301.92 92.5067 301.92 91.76V71.6H306.16V92.6C306.16 93.9333 305.933 95.08 305.48 96.04C305.027 97.0267 304.347 97.7733 303.44 98.28C302.56 98.8133 301.467 99.08 300.16 99.08C299.493 99.08 298.907 99 298.4 98.84C297.893 98.7067 297.453 98.4933 297.08 98.2C296.68 97.9333 296.333 97.64 296.04 97.32L298.08 93.96ZM314.832 84.28C314.832 84.8933 314.978 85.4267 315.272 85.88C315.565 86.3067 315.965 86.6267 316.472 86.84C317.005 87.0533 317.605 87.16 318.272 87.16C319.125 87.16 319.898 86.9867 320.592 86.64C321.312 86.2933 321.885 85.7867 322.312 85.12C322.765 84.4267 322.992 83.6267 322.992 82.72L323.632 85.12C323.632 86.2933 323.285 87.28 322.592 88.08C321.925 88.8533 321.072 89.44 320.032 89.84C319.018 90.2133 317.978 90.4 316.912 90.4C315.765 90.4 314.698 90.1733 313.712 89.72C312.725 89.2667 311.938 88.6 311.352 87.72C310.765 86.84 310.472 85.7733 310.472 84.52C310.472 82.7333 311.098 81.32 312.352 80.28C313.605 79.2133 315.378 78.68 317.672 78.68C318.898 78.68 319.952 78.8133 320.832 79.08C321.738 79.3467 322.485 79.6667 323.072 80.04C323.658 80.3867 324.072 80.7067 324.312 81V83.2C323.485 82.6133 322.605 82.1867 321.672 81.92C320.738 81.6533 319.752 81.52 318.712 81.52C317.805 81.52 317.072 81.64 316.512 81.88C315.952 82.0933 315.525 82.4 315.232 82.8C314.965 83.2 314.832 83.6933 314.832 84.28ZM313.472 76.4L311.712 73.36C312.538 72.8533 313.605 72.36 314.912 71.88C316.245 71.4 317.765 71.16 319.472 71.16C320.992 71.16 322.325 71.3867 323.472 71.84C324.645 72.2933 325.565 72.9467 326.232 73.8C326.898 74.6267 327.232 75.6533 327.232 76.88V90H322.992V77.72C322.992 77.1333 322.885 76.6533 322.672 76.28C322.485 75.9067 322.218 75.6 321.872 75.36C321.525 75.12 321.112 74.9467 320.632 74.84C320.152 74.7333 319.632 74.68 319.072 74.68C318.218 74.68 317.405 74.7867 316.632 75C315.885 75.1867 315.232 75.4267 314.672 75.72C314.138 75.9867 313.738 76.2133 313.472 76.4ZM336.548 71.6V90H332.268V71.6H336.548ZM342.028 76.2C341.628 75.88 341.254 75.64 340.908 75.48C340.561 75.32 340.121 75.24 339.588 75.24C338.868 75.24 338.281 75.4267 337.828 75.8C337.374 76.1733 337.041 76.6933 336.828 77.36C336.641 78 336.548 78.76 336.548 79.64L335.108 78.8C335.108 77.3333 335.374 76.04 335.908 74.92C336.468 73.7733 337.174 72.8667 338.028 72.2C338.908 71.5333 339.814 71.2 340.748 71.2C341.414 71.2 342.041 71.3067 342.628 71.52C343.214 71.7067 343.708 72.0533 344.108 72.56L342.028 76.2ZM45.96 109.8V141H41.6V109.8H45.96ZM61.2 131.8C61.2 133.8 60.7867 135.52 59.96 136.96C59.1333 138.4 58.04 139.507 56.68 140.28C55.32 141.027 53.84 141.4 52.24 141.4C50.72 141.4 49.36 141.013 48.16 140.24C46.9867 139.467 46.0667 138.36 45.4 136.92C44.7333 135.48 44.4 133.773 44.4 131.8C44.4 129.8 44.7333 128.093 45.4 126.68C46.0667 125.24 46.9867 124.133 48.16 123.36C49.36 122.587 50.72 122.2 52.24 122.2C53.84 122.2 55.32 122.587 56.68 123.36C58.04 124.107 59.1333 125.2 59.96 126.64C60.7867 128.053 61.2 129.773 61.2 131.8ZM56.72 131.8C56.72 130.573 56.4667 129.52 55.96 128.64C55.4533 127.76 54.7733 127.093 53.92 126.64C53.0933 126.187 52.1733 125.96 51.16 125.96C50.3333 125.96 49.52 126.187 48.72 126.64C47.92 127.093 47.2533 127.76 46.72 128.64C46.2133 129.493 45.96 130.547 45.96 131.8C45.96 133.053 46.2133 134.12 46.72 135C47.2533 135.853 47.92 136.507 48.72 136.96C49.52 137.413 50.3333 137.64 51.16 137.64C52.1733 137.64 53.0933 137.413 53.92 136.96C54.7733 136.507 55.4533 135.84 55.96 134.96C56.4667 134.08 56.72 133.027 56.72 131.8ZM73.3147 141.4C71.448 141.4 69.7947 141 68.3547 140.2C66.9414 139.4 65.848 138.28 65.0747 136.84C64.3014 135.4 63.9147 133.72 63.9147 131.8C63.9147 129.853 64.3014 128.16 65.0747 126.72C65.8747 125.28 66.9947 124.173 68.4347 123.4C69.8747 122.6 71.568 122.2 73.5147 122.2C75.4614 122.2 77.1147 122.573 78.4747 123.32C79.8347 124.067 80.8747 125.147 81.5947 126.56C82.3414 127.947 82.7147 129.627 82.7147 131.6C82.7147 131.813 82.7014 132.04 82.6747 132.28C82.6747 132.52 82.6614 132.693 82.6347 132.8H66.4747V129.84H78.9547L77.6347 131.68C77.7147 131.52 77.7947 131.307 77.8747 131.04C77.9814 130.747 78.0347 130.507 78.0347 130.32C78.0347 129.333 77.8347 128.48 77.4347 127.76C77.0614 127.04 76.528 126.48 75.8347 126.08C75.168 125.68 74.3814 125.48 73.4747 125.48C72.3814 125.48 71.448 125.72 70.6747 126.2C69.9014 126.68 69.3147 127.373 68.9147 128.28C68.5147 129.187 68.3014 130.307 68.2747 131.64C68.2747 132.973 68.4747 134.107 68.8747 135.04C69.2747 135.947 69.8614 136.64 70.6347 137.12C71.4347 137.6 72.3947 137.84 73.5147 137.84C74.688 137.84 75.7147 137.6 76.5947 137.12C77.4747 136.64 78.208 135.907 78.7947 134.92L82.5147 136.44C81.5547 138.093 80.3147 139.333 78.7947 140.16C77.2747 140.987 75.448 141.4 73.3147 141.4ZM91.1181 122.6V141H86.8381V122.6H91.1181ZM96.5981 127.2C96.1981 126.88 95.8248 126.64 95.4781 126.48C95.1315 126.32 94.6915 126.24 94.1581 126.24C93.4381 126.24 92.8515 126.427 92.3981 126.8C91.9448 127.173 91.6115 127.693 91.3981 128.36C91.2115 129 91.1181 129.76 91.1181 130.64L89.6781 129.8C89.6781 128.333 89.9448 127.04 90.4781 125.92C91.0381 124.773 91.7448 123.867 92.5981 123.2C93.4781 122.533 94.3848 122.2 95.3181 122.2C95.9848 122.2 96.6115 122.307 97.1981 122.52C97.7848 122.707 98.2781 123.053 98.6781 123.56L96.5981 127.2ZM102.483 134.96C103.069 135.6 103.656 136.16 104.243 136.64C104.856 137.093 105.469 137.44 106.083 137.68C106.696 137.893 107.309 138 107.923 138C108.696 138 109.296 137.827 109.723 137.48C110.176 137.133 110.403 136.653 110.403 136.04C110.403 135.507 110.229 135.053 109.883 134.68C109.536 134.28 109.056 133.947 108.443 133.68C107.829 133.387 107.109 133.093 106.283 132.8C105.456 132.48 104.629 132.107 103.803 131.68C103.003 131.227 102.336 130.64 101.803 129.92C101.296 129.2 101.043 128.293 101.043 127.2C101.043 126.08 101.323 125.147 101.883 124.4C102.469 123.653 103.243 123.107 104.203 122.76C105.189 122.387 106.243 122.2 107.363 122.2C108.376 122.2 109.323 122.347 110.203 122.64C111.109 122.933 111.923 123.32 112.643 123.8C113.363 124.28 113.976 124.827 114.483 125.44L112.083 128C111.469 127.28 110.736 126.693 109.883 126.24C109.029 125.787 108.149 125.56 107.243 125.56C106.629 125.56 106.123 125.693 105.723 125.96C105.323 126.227 105.123 126.613 105.123 127.12C105.123 127.547 105.296 127.933 105.643 128.28C106.016 128.6 106.496 128.893 107.083 129.16C107.696 129.427 108.376 129.707 109.123 130C110.136 130.4 111.069 130.84 111.923 131.32C112.776 131.8 113.456 132.387 113.963 133.08C114.496 133.773 114.763 134.68 114.763 135.8C114.763 137.533 114.163 138.933 112.963 140C111.789 141.04 110.189 141.56 108.163 141.56C106.909 141.56 105.749 141.373 104.683 141C103.643 140.6 102.723 140.093 101.923 139.48C101.149 138.84 100.496 138.173 99.9628 137.48L102.483 134.96ZM121.316 135.28C121.316 135.893 121.463 136.427 121.756 136.88C122.049 137.307 122.449 137.627 122.956 137.84C123.489 138.053 124.089 138.16 124.756 138.16C125.609 138.16 126.383 137.987 127.076 137.64C127.796 137.293 128.369 136.787 128.796 136.12C129.249 135.427 129.476 134.627 129.476 133.72L130.116 136.12C130.116 137.293 129.769 138.28 129.076 139.08C128.409 139.853 127.556 140.44 126.516 140.84C125.503 141.213 124.463 141.4 123.396 141.4C122.249 141.4 121.183 141.173 120.196 140.72C119.209 140.267 118.423 139.6 117.836 138.72C117.249 137.84 116.956 136.773 116.956 135.52C116.956 133.733 117.583 132.32 118.836 131.28C120.089 130.213 121.863 129.68 124.156 129.68C125.383 129.68 126.436 129.813 127.316 130.08C128.223 130.347 128.969 130.667 129.556 131.04C130.143 131.387 130.556 131.707 130.796 132V134.2C129.969 133.613 129.089 133.187 128.156 132.92C127.223 132.653 126.236 132.52 125.196 132.52C124.289 132.52 123.556 132.64 122.996 132.88C122.436 133.093 122.009 133.4 121.716 133.8C121.449 134.2 121.316 134.693 121.316 135.28ZM119.956 127.4L118.196 124.36C119.023 123.853 120.089 123.36 121.396 122.88C122.729 122.4 124.249 122.16 125.956 122.16C127.476 122.16 128.809 122.387 129.956 122.84C131.129 123.293 132.049 123.947 132.716 124.8C133.383 125.627 133.716 126.653 133.716 127.88V141H129.476V128.72C129.476 128.133 129.369 127.653 129.156 127.28C128.969 126.907 128.703 126.6 128.356 126.36C128.009 126.12 127.596 125.947 127.116 125.84C126.636 125.733 126.116 125.68 125.556 125.68C124.703 125.68 123.889 125.787 123.116 126C122.369 126.187 121.716 126.427 121.156 126.72C120.623 126.987 120.223 127.213 119.956 127.4ZM165.072 129.32V141H160.752V129.8C160.752 128.413 160.499 127.387 159.992 126.72C159.512 126.027 158.739 125.68 157.672 125.68C156.952 125.68 156.312 125.84 155.752 126.16C155.219 126.48 154.792 126.947 154.472 127.56C154.179 128.173 154.032 128.92 154.032 129.8V141H149.712V129.8C149.712 128.413 149.459 127.387 148.952 126.72C148.472 126.027 147.699 125.68 146.632 125.68C145.886 125.68 145.232 125.84 144.672 126.16C144.139 126.48 143.726 126.947 143.432 127.56C143.139 128.173 142.992 128.92 142.992 129.8V141H138.752V122.6H142.992V125.28C143.526 124.267 144.219 123.507 145.072 123C145.952 122.467 146.979 122.2 148.152 122.2C149.512 122.2 150.632 122.48 151.512 123.04C152.419 123.6 153.072 124.413 153.472 125.48C154.112 124.413 154.912 123.6 155.872 123.04C156.859 122.48 157.979 122.2 159.232 122.2C160.539 122.2 161.619 122.48 162.472 123.04C163.352 123.573 164.006 124.373 164.432 125.44C164.859 126.507 165.072 127.8 165.072 129.32ZM173.308 135.28C173.308 135.893 173.455 136.427 173.748 136.88C174.041 137.307 174.441 137.627 174.948 137.84C175.481 138.053 176.081 138.16 176.748 138.16C177.601 138.16 178.375 137.987 179.068 137.64C179.788 137.293 180.361 136.787 180.788 136.12C181.241 135.427 181.468 134.627 181.468 133.72L182.108 136.12C182.108 137.293 181.761 138.28 181.068 139.08C180.401 139.853 179.548 140.44 178.508 140.84C177.495 141.213 176.455 141.4 175.388 141.4C174.241 141.4 173.175 141.173 172.188 140.72C171.201 140.267 170.415 139.6 169.828 138.72C169.241 137.84 168.948 136.773 168.948 135.52C168.948 133.733 169.575 132.32 170.828 131.28C172.081 130.213 173.855 129.68 176.148 129.68C177.375 129.68 178.428 129.813 179.308 130.08C180.215 130.347 180.961 130.667 181.548 131.04C182.135 131.387 182.548 131.707 182.788 132V134.2C181.961 133.613 181.081 133.187 180.148 132.92C179.215 132.653 178.228 132.52 177.188 132.52C176.281 132.52 175.548 132.64 174.988 132.88C174.428 133.093 174.001 133.4 173.708 133.8C173.441 134.2 173.308 134.693 173.308 135.28ZM171.948 127.4L170.188 124.36C171.015 123.853 172.081 123.36 173.388 122.88C174.721 122.4 176.241 122.16 177.948 122.16C179.468 122.16 180.801 122.387 181.948 122.84C183.121 123.293 184.041 123.947 184.708 124.8C185.375 125.627 185.708 126.653 185.708 127.88V141H181.468V128.72C181.468 128.133 181.361 127.653 181.148 127.28C180.961 126.907 180.695 126.6 180.348 126.36C180.001 126.12 179.588 125.947 179.108 125.84C178.628 125.733 178.108 125.68 177.548 125.68C176.695 125.68 175.881 125.787 175.108 126C174.361 126.187 173.708 126.427 173.148 126.72C172.615 126.987 172.215 127.213 171.948 127.4ZM206.017 131.16C206.577 132.173 207.203 133.053 207.897 133.8C208.617 134.547 209.39 135.12 210.217 135.52C211.07 135.92 211.963 136.12 212.897 136.12C213.883 136.12 214.697 135.88 215.337 135.4C215.977 134.893 216.297 134.213 216.297 133.36C216.297 132.64 216.11 132.067 215.737 131.64C215.363 131.187 214.763 130.76 213.937 130.36C213.11 129.96 212.017 129.507 210.657 129C209.99 128.76 209.217 128.427 208.337 128C207.483 127.573 206.67 127.027 205.897 126.36C205.123 125.667 204.483 124.84 203.977 123.88C203.47 122.893 203.217 121.707 203.217 120.32C203.217 118.667 203.643 117.24 204.497 116.04C205.377 114.84 206.55 113.933 208.017 113.32C209.51 112.68 211.163 112.36 212.977 112.36C214.843 112.36 216.457 112.667 217.817 113.28C219.203 113.893 220.35 114.667 221.257 115.6C222.163 116.533 222.857 117.48 223.337 118.44L218.177 121.32C217.777 120.653 217.31 120.08 216.777 119.6C216.27 119.093 215.697 118.707 215.057 118.44C214.443 118.147 213.777 118 213.057 118C212.097 118 211.363 118.213 210.857 118.64C210.35 119.04 210.097 119.547 210.097 120.16C210.097 120.8 210.337 121.36 210.817 121.84C211.323 122.32 212.03 122.76 212.937 123.16C213.87 123.56 214.99 123.987 216.297 124.44C217.283 124.813 218.203 125.253 219.057 125.76C219.91 126.24 220.657 126.827 221.297 127.52C221.963 128.213 222.483 129.013 222.857 129.92C223.23 130.827 223.417 131.867 223.417 133.04C223.417 134.453 223.123 135.72 222.537 136.84C221.977 137.933 221.203 138.853 220.217 139.6C219.257 140.347 218.15 140.907 216.897 141.28C215.67 141.68 214.403 141.88 213.097 141.88C211.283 141.88 209.59 141.56 208.017 140.92C206.47 140.253 205.123 139.36 203.977 138.24C202.83 137.12 201.937 135.893 201.297 134.56L206.017 131.16ZM226.977 115.68C226.977 114.72 227.323 113.947 228.017 113.36C228.71 112.747 229.537 112.44 230.497 112.44C231.483 112.44 232.31 112.747 232.977 113.36C233.67 113.947 234.017 114.72 234.017 115.68C234.017 116.64 233.67 117.427 232.977 118.04C232.31 118.653 231.483 118.96 230.497 118.96C229.537 118.96 228.71 118.653 228.017 118.04C227.323 117.427 226.977 116.64 226.977 115.68ZM227.577 122.6H233.417V141H227.577V122.6ZM250.351 129.8C250.351 128.707 250.138 127.867 249.711 127.28C249.311 126.693 248.631 126.4 247.671 126.4C247.031 126.4 246.471 126.533 245.991 126.8C245.511 127.067 245.138 127.453 244.871 127.96C244.605 128.467 244.471 129.08 244.471 129.8V141H238.391V122.6H244.471V125.36C245.005 124.347 245.725 123.56 246.631 123C247.565 122.44 248.711 122.16 250.071 122.16C252.365 122.16 254.031 122.773 255.071 124C256.111 125.227 256.631 126.947 256.631 129.16V141H250.351V129.8ZM267.399 109.8V141H261.359V109.8H267.399ZM282.439 131.8C282.439 133.853 282.012 135.6 281.159 137.04C280.332 138.453 279.252 139.533 277.919 140.28C276.612 141.027 275.199 141.4 273.679 141.4C272.159 141.4 270.799 141.013 269.599 140.24C268.399 139.467 267.452 138.36 266.759 136.92C266.066 135.48 265.719 133.773 265.719 131.8C265.719 129.8 266.066 128.093 266.759 126.68C267.452 125.24 268.399 124.133 269.599 123.36C270.799 122.587 272.159 122.2 273.679 122.2C275.199 122.2 276.612 122.573 277.919 123.32C279.252 124.067 280.332 125.147 281.159 126.56C282.012 127.973 282.439 129.72 282.439 131.8ZM276.079 131.8C276.079 130.84 275.879 130.013 275.479 129.32C275.079 128.6 274.546 128.053 273.879 127.68C273.212 127.28 272.479 127.08 271.679 127.08C270.986 127.08 270.306 127.267 269.639 127.64C268.999 128.013 268.466 128.56 268.039 129.28C267.612 129.973 267.399 130.813 267.399 131.8C267.399 132.787 267.612 133.64 268.039 134.36C268.466 135.053 268.999 135.587 269.639 135.96C270.306 136.333 270.986 136.52 271.679 136.52C272.479 136.52 273.212 136.333 273.879 135.96C274.546 135.56 275.079 135.013 275.479 134.32C275.879 133.6 276.079 132.76 276.079 131.8ZM290.767 135.24C290.767 135.72 290.887 136.133 291.127 136.48C291.367 136.8 291.687 137.053 292.087 137.24C292.487 137.4 292.927 137.48 293.407 137.48C294.1 137.48 294.74 137.333 295.327 137.04C295.913 136.747 296.393 136.307 296.767 135.72C297.14 135.133 297.327 134.413 297.327 133.56L297.967 135.96C297.967 137.133 297.647 138.133 297.007 138.96C296.367 139.76 295.54 140.373 294.527 140.8C293.513 141.2 292.42 141.4 291.247 141.4C290.073 141.4 288.98 141.187 287.967 140.76C286.98 140.307 286.18 139.64 285.567 138.76C284.98 137.88 284.687 136.813 284.687 135.56C284.687 133.8 285.313 132.413 286.567 131.4C287.82 130.36 289.593 129.84 291.887 129.84C293.007 129.84 294.007 129.947 294.887 130.16C295.793 130.373 296.567 130.64 297.207 130.96C297.847 131.28 298.327 131.613 298.647 131.96V134.64C298.007 134.16 297.26 133.8 296.407 133.56C295.58 133.293 294.7 133.16 293.767 133.16C293.047 133.16 292.473 133.24 292.047 133.4C291.62 133.56 291.3 133.8 291.087 134.12C290.873 134.413 290.767 134.787 290.767 135.24ZM288.087 128.24L286.047 124.2C287.087 123.693 288.34 123.213 289.807 122.76C291.273 122.307 292.873 122.08 294.607 122.08C296.233 122.08 297.687 122.32 298.967 122.8C300.247 123.253 301.26 123.92 302.007 124.8C302.753 125.68 303.127 126.76 303.127 128.04V141H297.327V129.4C297.327 128.947 297.247 128.56 297.087 128.24C296.953 127.893 296.74 127.6 296.447 127.36C296.153 127.12 295.78 126.947 295.327 126.84C294.9 126.733 294.407 126.68 293.847 126.68C293.02 126.68 292.207 126.773 291.407 126.96C290.633 127.147 289.953 127.373 289.367 127.64C288.78 127.88 288.353 128.08 288.087 128.24ZM313.609 122.6V141H307.649V122.6H313.609ZM318.929 128.84C318.609 128.52 318.262 128.267 317.889 128.08C317.542 127.893 317.102 127.8 316.569 127.8C315.982 127.8 315.462 127.96 315.009 128.28C314.556 128.6 314.209 129.067 313.969 129.68C313.729 130.293 313.609 131.04 313.609 131.92L312.169 129.8C312.169 128.333 312.449 127.027 313.009 125.88C313.596 124.733 314.356 123.827 315.289 123.16C316.222 122.493 317.196 122.16 318.209 122.16C318.876 122.16 319.516 122.293 320.129 122.56C320.742 122.827 321.209 123.2 321.529 123.68L318.929 128.84Z" fill="white"/>
<g clip-path="url(#clip0_275_1906)">
<path d="M942.789 229.934C944.688 206.267 933.699 182.004 914.215 166.85C891.263 148.999 859.153 144.592 829.576 148.161C799.999 151.729 772.017 162.374 743.941 171.794C715.861 181.213 686.615 189.584 656.825 188.308C620.828 186.765 586.83 171.247 550.862 169.229C527.671 167.926 503.529 172.672 484.837 185.604C466.138 198.537 453.791 220.352 456.33 242.005C456.37 242.335 456.413 242.669 456.459 243H940.421C941.634 238.727 942.434 234.352 942.789 229.934Z" fill="#D3E6FD"/>
<path d="M789.218 127.344C783.322 124.024 779.624 117.465 780.017 111.027L781.808 111.123C781.452 116.956 784.802 122.894 790.143 125.903L789.218 127.344Z" fill="#2E5BBF"/>
<path d="M766.634 224.223L758.261 224.196C758.796 227.599 761.082 240.449 761.486 243H769.856C769.449 240.414 767.166 227.583 766.634 224.223Z" fill="#2A53AD"/>
<path d="M806.496 130.769C804.369 130.04 802.305 129.172 800.338 128.153C796.99 126.428 793.933 124.277 791.368 121.661C792.62 121.813 793.904 121.645 794.977 121.037C796.321 120.271 797.187 118.901 797.56 117.465C797.933 116.032 797.87 114.532 797.708 113.061C797.414 110.411 796.791 107.741 795.379 105.427C793.967 103.113 791.686 101.172 788.925 100.532C786.539 99.9766 784.142 100.948 782.474 102.483C782.05 99.7898 781.836 97.0592 781.762 94.358C781.628 89.4707 781.896 84.5753 782.038 79.6854C782.118 76.8453 782.158 74.008 782.044 71.1733C782.935 71.1252 783.82 71.0371 784.694 70.901C791.037 69.9161 796.811 66.9826 801.867 63.187C802.673 64.0972 803.601 64.9193 804.617 65.6107C808.91 68.5468 814.459 69.489 819.766 69.2408C827.353 68.8831 834.772 66.1525 840.67 61.6736C840.522 65.5092 841.22 69.3449 843.033 72.7721C843.976 74.5471 845.234 76.1727 846.732 77.5713C847.477 78.268 848.286 78.9113 849.146 79.4852C850.296 80.2539 851.233 80.8732 851.617 82.1917C852.05 83.6625 852.568 85.0958 853.265 86.4758C853.971 87.8718 854.817 89.2037 855.793 90.4422L856.021 90.5036C855.398 92.5189 855.067 94.6329 854.928 96.7255C854.686 100.3 854.968 103.999 856.599 107.232C857.96 109.922 860.391 112.244 863.352 113.213L863.349 113.221C861.379 116.067 859.119 118.746 856.599 121.167C852.67 124.955 848.107 128.115 843.028 130.304C842.717 130.44 842.407 130.571 842.088 130.699C841.041 131.118 839.973 131.5 838.883 131.836C832.765 133.729 826.222 134.174 819.797 133.574C818.185 133.422 816.583 133.206 814.997 132.928C812.127 132.434 809.26 131.716 806.496 130.769ZM851.939 114.593C853.806 112.477 854.882 109.639 854.347 106.935C853.815 104.234 851.543 101.407 848.323 101.082C845.496 100.793 842.641 101.877 840.468 103.599C838.296 105.318 836.733 107.621 835.483 110.021C834.792 111.347 834.182 112.735 834.009 114.203C833.835 115.669 834.14 117.236 835.128 118.389C836.212 119.657 837.997 120.273 839.731 120.3C841.465 120.332 843.159 119.838 844.764 119.222C847.472 118.173 850.068 116.71 851.939 114.593ZM828.013 115.22C830.869 113.109 832.346 109.479 831.72 106.121C825.909 107.119 811.655 109.015 811.655 109.015C811.76 109.954 812.529 111.75 813.03 112.549C814.112 114.265 815.754 115.68 817.707 116.475C821.044 117.831 825.158 117.332 828.013 115.22ZM808.54 92.268C808.54 90.138 806.698 88.4137 804.429 88.4137C802.157 88.4137 800.318 90.138 800.318 92.268C800.318 94.3953 802.157 96.1223 804.429 96.1223C806.698 96.1196 808.54 94.3953 808.54 92.268Z" fill="#FFC3A8"/>
<path d="M588.516 130.432C585.116 131.361 581.928 132.933 579.306 135.154C575.565 138.328 573.137 142.673 571.642 147.189C570.284 151.279 569.643 155.536 569.074 159.791L552.838 159.86C552.829 159.695 552.818 159.532 552.81 159.366C552.568 155.536 552.326 151.7 552.084 147.867C551.787 143.178 551.491 138.49 551.195 133.801C550.871 128.646 550.543 123.492 550.219 118.338C549.891 113.112 549.561 107.88 549.228 102.654C548.921 97.7398 548.61 92.8284 548.297 87.9144C548.032 83.7104 547.768 79.5038 547.503 75.2998C547.392 73.5595 546.8 71.3147 548.437 70.0388C549.897 68.899 552.135 69.0965 553.888 69.0885C555.847 69.0832 557.8 69.0779 559.756 69.0699C561.917 69.0619 564.075 69.0565 566.233 69.0485C568.567 69.0405 570.902 69.0325 573.236 69.0245C575.722 69.0165 578.207 69.0085 580.692 69.0005C583.303 68.9924 585.908 68.9844 588.518 68.9738C591.223 68.9658 593.933 68.9578 596.638 68.9444C599.414 68.9364 602.192 68.9257 604.968 68.9177C607.789 68.907 610.613 68.899 613.438 68.8857C616.276 68.8777 619.117 68.867 621.961 68.8563C624.794 68.8456 627.627 68.8376 630.459 68.8243C633.261 68.8136 636.059 68.8056 638.861 68.7976C641.599 68.7869 644.338 68.7789 647.074 68.7656C649.727 68.7576 652.381 68.7496 655.034 68.7389C657.571 68.7309 660.113 68.7229 662.652 68.7149C665.052 68.7068 667.452 68.6988 669.852 68.6908C672.087 68.6828 674.325 68.6748 676.559 68.6668C678.601 68.6615 680.645 68.6535 682.692 68.6481C684.52 68.6428 686.344 68.6348 688.169 68.6294C689.746 68.6241 691.341 68.6775 692.915 68.6134C693.812 68.5761 694.39 69.3902 694.518 70.1322C694.7 71.1919 694.674 72.3156 694.743 73.386C694.885 75.6468 695.027 77.9103 695.17 80.1711C695.181 80.3739 695.195 80.5768 695.21 80.7796C695.346 82.9737 695.489 85.1651 695.625 87.3566C695.773 89.7535 695.927 92.1504 696.081 94.5447C696.24 97.0911 696.4 99.6402 696.562 102.187C696.73 104.834 696.898 107.48 697.063 110.13C697.234 112.821 697.402 115.514 697.57 118.207C697.741 120.892 697.911 123.58 698.079 126.266C698.247 128.895 698.412 131.521 698.578 134.148C698.737 136.665 698.894 139.179 699.053 141.696C699.204 144.048 699.349 146.397 699.497 148.748C699.631 150.881 699.768 153.016 699.901 155.149C699.987 156.513 700.075 157.88 700.158 159.243L649.115 159.46C649.898 156.788 650.63 154.103 651.307 151.404C652.019 148.583 652.674 145.745 653.272 142.897C653.534 141.635 653.787 140.375 654.029 139.11C654.063 138.947 654.094 138.781 654.126 138.619C654.388 137.22 654.544 135.776 654.886 134.393C654.991 133.977 655.276 133.734 655.598 133.459C655.942 133.168 656.247 132.84 656.511 132.487C657.044 131.767 657.408 130.931 657.539 130.064C658.632 129.824 659.657 128.887 659.919 127.76C660.178 126.637 659.657 125.387 658.652 124.725C659.441 123.97 659.922 122.806 659.649 121.787C659.37 120.767 658.356 119.958 657.237 119.873C657.79 119.072 657.935 118.002 657.499 117.169C657.064 116.333 656.073 115.784 655.088 115.826C656.953 113.851 658.581 111.999 660.121 110.087C660.716 109.351 661.311 108.339 660.762 107.573C660.415 107.09 659.711 106.932 659.105 107.037C658.499 107.146 657.963 107.477 657.457 107.811C654.299 109.901 651.549 112.474 648.873 115.095C646.263 116.32 644.125 118.426 643.006 120.962C641.83 123.62 641.804 126.695 642.878 129.388C643.011 129.725 643.251 130.069 643.344 130.413C643.532 131.105 643.162 131.887 642.935 132.533C642.653 133.336 642.371 134.142 642.086 134.946C642.029 135.109 641.972 135.271 641.915 135.434C641.406 136.881 640.896 138.328 640.387 139.772C639.253 142.991 638.12 146.21 636.987 149.426C636.432 151.012 635.871 152.597 635.316 154.18L616.6 133.889C615.285 132.885 613.811 132.018 612.233 131.321C611.382 130.942 610.5 130.614 609.597 130.344C608.282 129.949 606.924 129.669 605.546 129.519L605.469 129.527C605.455 129.439 605.432 129.354 605.406 129.266C605.389 128.964 605.367 128.633 605.344 128.291C605.332 128.113 605.321 127.931 605.307 127.747C606.374 127.747 607.442 127.747 608.504 127.747C610.901 127.747 613.124 127.896 615.399 126.997C618.926 125.601 621.554 122.299 621.799 118.717C621.919 116.958 621.435 115.178 620.498 113.651C620.028 112.882 619.439 112.175 618.753 111.566C618.437 111.286 618.015 111.067 617.734 110.773C617.418 110.44 617.261 109.895 617.221 109.466C617.181 109.041 617.366 108.785 617.517 108.398C617.682 107.968 617.81 107.525 617.896 107.074C617.953 106.778 617.904 106.359 618.007 106.084C618.263 105.395 619.456 105.035 620.065 104.712C620.865 104.285 621.625 103.783 622.317 103.212C623.689 102.083 624.805 100.668 625.463 99.0637C626.827 95.7378 625.978 91.5792 623.049 89.3131C621.082 87.789 618.42 87.2231 615.872 87.3485C615.055 87.3913 614.087 87.4233 613.309 87.6795C612.675 87.8877 612.156 88.0586 611.456 88.0772C610.033 88.1173 608.592 87.7463 607.396 87.0176C605.614 85.9365 603.892 85.0103 601.816 84.4978C598.491 83.6757 594.952 83.7878 591.602 84.5032C585.17 85.8671 579.26 89.5373 575.733 94.7583C573.723 97.7291 572.542 101.188 572.305 104.696C572.12 107.464 572.519 110.416 571.124 112.978C569.752 115.498 567.733 117.236 567.454 120.244C567.107 123.938 569.287 127.784 572.843 129.41C576.217 130.95 580.63 130.269 583.223 127.75C586.736 127.75 590.247 127.75 593.762 127.75C593.822 128.334 593.885 128.919 593.945 129.503L593.899 129.514C593.085 129.575 592.276 129.671 591.471 129.802C590.474 129.952 589.486 130.165 588.516 130.432Z" fill="#FFFFFD"/>
<path d="M698.137 124.6L635.516 124.562L630.044 68.7893L622.557 68.6959L628.609 130.835L698.45 130.976L698.137 124.6Z" fill="#99E7FF"/>
<path d="M874.222 201.956C872.835 200.765 871.993 199.076 872.163 197.191C872.215 196.625 872.274 196.062 872.346 195.499C876.186 198.061 880.092 200.595 884.337 202.463C883.52 202.893 882.657 203.234 881.763 203.464C880.713 203.731 879.628 203.843 878.543 203.747C876.906 203.605 875.375 202.951 874.222 201.956Z" fill="#BF3426"/>
<path d="M771.407 214.851V218.275L703.374 218.404L703.354 209.227C703.437 209.232 703.522 209.24 703.605 209.246C708.823 203.803 717.341 201.401 724.914 203.096C727.713 204.289 730.548 205.402 733.418 206.44C740.014 208.832 746.764 210.839 753.568 212.654C755.336 213.124 757.107 213.586 758.884 214.031C762.81 215.022 766.96 215.964 770.892 214.99C771.066 214.947 771.236 214.902 771.407 214.851Z" fill="#EBEBEB"/>
<path d="M605.022 114.508C605.495 114.916 605.398 115.647 605.127 116.194C604.484 117.478 603.041 118.375 601.532 118.431C600.02 118.485 598.505 117.692 597.765 116.459C597.575 116.141 597.429 115.791 597.438 115.431C597.446 115.071 597.629 114.694 597.967 114.518C598.54 114.219 599.476 114.452 600.091 114.497C601.167 114.577 602.261 114.558 603.32 114.342C603.898 114.222 604.584 114.131 605.022 114.508Z" fill="white"/>
<path d="M593.424 124.464C590.785 123.957 588.211 123.126 585.797 122.003C585.891 121.098 585.871 120.185 585.766 119.288C585.589 117.791 585.185 116.328 584.684 114.903C584.439 114.198 584.098 113.512 583.881 112.805C583.699 112.212 583.648 111.256 583.938 110.691C584.115 110.349 584.453 110.034 584.673 109.714C584.917 109.359 585.148 108.993 585.362 108.617C586.187 107.159 586.751 105.571 587.01 103.935L586.999 103.887C587.713 103.737 588.425 103.58 589.131 103.404C589.196 105.165 589.137 107.06 589.746 108.822C590.389 110.677 591.952 112.38 594.008 112.679C596.069 112.981 598.153 111.758 599.203 110.061C600.245 108.376 600.41 106.321 600.174 104.386C601.239 103.857 602.563 103.812 603.662 104.269C603.425 106.206 603.596 108.248 604.635 109.933C605.68 111.628 607.764 112.85 609.831 112.551C611.884 112.252 613.452 110.546 614.093 108.694C614.113 108.635 614.135 108.574 614.15 108.515C614.164 108.921 614.172 109.327 614.184 109.738C616.732 113.173 615.488 118.231 612.265 121.119C610.284 122.894 607.755 123.973 605.065 124.544C603.38 124.904 601.623 125.064 599.907 125.072C597.729 125.083 595.554 124.877 593.424 124.464ZM605.128 116.197C605.401 115.65 605.495 114.919 605.022 114.51C604.584 114.131 603.898 114.225 603.314 114.342C602.255 114.558 601.162 114.577 600.086 114.497C599.474 114.452 598.534 114.219 597.962 114.518C597.623 114.694 597.441 115.071 597.433 115.431C597.427 115.791 597.569 116.144 597.76 116.459C598.5 117.692 600.015 118.485 601.526 118.431C603.041 118.375 604.484 117.478 605.128 116.197Z" fill="#FFAE84"/>
<path d="M854.347 106.935C854.883 109.636 853.806 112.476 851.939 114.593C850.068 116.71 847.472 118.172 844.765 119.216C843.159 119.833 841.465 120.326 839.731 120.294C837.998 120.265 836.213 119.648 835.128 118.383C834.14 117.23 833.835 115.666 834.009 114.198C834.183 112.733 834.792 111.342 835.484 110.015C836.734 107.616 838.296 105.312 840.469 103.593C842.641 101.872 845.496 100.788 848.323 101.076C851.543 101.41 853.815 104.234 854.347 106.935Z" fill="#FFA995"/>
<path d="M702.993 198.545C702.802 198.617 702.606 198.681 702.407 198.74C701.234 199.076 699.813 199.009 698.857 198.371C698.56 198.179 698.31 197.928 698.125 197.624C697.909 197.272 697.806 196.874 697.792 196.465C697.089 197.298 695.665 197.576 694.609 197.095C693.345 196.527 692.647 195.163 692.627 193.847C692.608 192.534 693.157 191.269 693.843 190.123C696.326 185.997 700.795 182.97 705.755 182.06C708.838 181.494 712.072 181.75 715.024 182.732C718.144 183.765 721.245 184.798 724.482 185.418C726.338 185.773 728.467 185.594 730.358 185.666C732.37 185.743 734.378 185.829 736.39 185.919C744.402 186.272 752.413 186.702 760.421 187.134C760.982 187.161 761.543 187.193 762.101 187.225C764.541 184.259 766.485 181.865 768.168 179.759C774.812 187.572 781.457 195.382 788.102 203.195C785.377 205.37 782.656 207.543 779.931 209.715C777.343 211.784 774.633 213.909 771.402 214.851C771.231 214.902 771.06 214.95 770.886 214.992C766.955 215.967 762.804 215.024 758.878 214.034C757.102 213.588 755.331 213.129 753.563 212.657C746.759 210.844 740.009 208.835 733.412 206.443C730.543 205.405 727.707 204.294 724.909 203.098C724.496 202.922 724.083 202.743 723.673 202.562C722.073 201.863 720.493 201.131 718.927 200.373C717.672 199.762 716.004 199.175 714.572 199.156C713.649 199.145 712.761 199.14 711.841 198.98C711.238 198.873 710.64 198.726 710.056 198.542C708.886 198.171 707.776 197.643 706.777 196.957C705.447 197.304 704.28 198.062 702.993 198.545Z" fill="#FFC3A8"/>
<path d="M605.546 129.508C606.924 129.658 608.282 129.938 609.597 130.333C609.802 131.566 609.754 132.855 609.23 133.998C608.649 135.268 607.417 136.32 605.953 136.494C604.009 136.723 602.113 135.263 601.663 133.475L601.657 133.451C602.753 133.283 603.835 132.85 604.587 132.081C605.259 131.398 605.626 130.424 605.469 129.519L605.546 129.508Z" fill="#99E7FF"/>
<path d="M605.307 127.736C605.318 127.918 605.33 128.099 605.344 128.281C601.236 128.753 596.957 127.779 593.543 125.588C593.504 125.211 593.467 124.84 593.427 124.464C595.556 124.878 597.731 125.083 599.906 125.072C601.626 125.064 603.38 124.904 605.065 124.544C605.096 124.947 605.207 126.364 605.307 127.736Z" fill="#FF9566"/>
<path d="M705.151 157.242C705.194 157.898 705.231 158.555 705.273 159.211L700.157 159.233C700.075 157.869 699.987 156.502 699.901 155.138C699.767 153.005 699.631 150.87 699.497 148.737C699.346 146.386 699.201 144.037 699.053 141.685C698.893 139.168 698.737 136.654 698.577 134.137C698.409 131.51 698.244 128.884 698.079 126.255C697.911 123.57 697.74 120.882 697.57 118.196C697.399 115.503 697.231 112.81 697.063 110.119C696.895 107.472 696.727 104.826 696.562 102.176C696.399 99.6294 696.24 97.0803 696.081 94.5339C695.927 92.137 695.776 89.74 695.625 87.3458C695.488 85.1543 695.346 82.9629 695.209 80.7688C695.198 80.566 695.184 80.3631 695.17 80.1603C695.027 77.8995 694.885 75.636 694.743 73.3752C694.674 72.3048 694.7 71.1811 694.518 70.1214C694.39 69.3794 693.812 68.5653 692.915 68.6026C691.34 68.6667 689.746 68.6133 688.169 68.6186C686.344 68.624 684.519 68.632 682.692 68.6373C680.647 68.6427 678.603 68.6507 676.559 68.656C674.324 68.664 672.087 68.672 669.852 68.68C667.452 68.688 665.052 68.696 662.652 68.7041C660.11 68.7121 657.57 68.7201 655.034 68.7281C652.38 68.7388 649.727 68.7468 647.074 68.7548C644.335 68.7654 641.596 68.7734 638.86 68.7868C636.059 68.7948 633.26 68.8028 630.459 68.8135C627.626 68.8242 624.794 68.8322 621.961 68.8455C619.117 68.8535 616.279 68.8642 613.437 68.8749C610.616 68.8856 607.792 68.8936 604.968 68.9069C602.192 68.9149 599.413 68.9256 596.638 68.9336C593.933 68.9443 591.223 68.9523 588.518 68.963C585.908 68.9736 583.303 68.9816 580.692 68.9897C578.207 68.9977 575.721 69.0057 573.236 69.0137C570.901 69.0217 568.567 69.0297 566.233 69.0377C564.075 69.0457 561.917 69.051 559.756 69.0591C557.8 69.0671 555.847 69.0724 553.888 69.0777C552.135 69.0857 549.897 68.8882 548.436 70.028C546.802 71.3039 547.394 73.5487 547.503 75.289C547.767 79.493 548.032 83.6996 548.297 87.9036C548.607 92.8176 548.918 97.729 549.228 102.643C549.561 107.869 549.888 113.101 550.219 118.327C550.543 123.481 550.871 128.636 551.195 133.79C551.491 138.48 551.787 143.167 552.083 147.857C552.325 151.69 552.567 155.525 552.809 159.356C552.818 159.521 552.829 159.684 552.838 159.849L547.571 159.871C547.298 155.448 547.024 151.022 546.745 146.599C546.438 141.613 546.128 136.627 545.814 131.644C545.493 126.428 545.168 121.215 544.844 116.002C544.528 110.88 544.206 105.755 543.89 100.636C543.597 95.9246 543.303 91.2161 543.01 86.5076C542.762 82.5305 542.518 78.5534 542.27 74.5763C542.207 73.562 541.917 72.3902 542.065 71.4053C542.327 69.6783 543.232 68.0368 544.596 66.849C547.457 64.3666 551.229 64.8444 554.819 64.8337C557.974 64.823 561.125 64.8124 564.282 64.799C567.872 64.7857 571.465 64.775 575.058 64.759C578.99 64.7456 582.924 64.7323 586.856 64.7189C591.032 64.7029 595.211 64.6869 599.388 64.6736C603.712 64.6602 608.04 64.6415 612.367 64.6282C616.743 64.6122 621.121 64.5961 625.5 64.5801C629.833 64.5668 634.169 64.5534 638.502 64.5348C642.695 64.5214 646.886 64.5081 651.079 64.4894C655.037 64.4787 658.991 64.4654 662.951 64.4493C666.575 64.436 670.199 64.4253 673.823 64.4093C677.015 64.3986 680.212 64.3879 683.406 64.3746C686.077 64.3666 688.741 64.3559 691.412 64.3452C692.152 64.3426 692.932 64.2705 693.661 64.3105C695.264 64.4013 696.912 65.3515 697.945 66.4593C699.562 68.1969 699.73 70.5084 699.867 72.7025C699.95 74.0478 700.035 75.3904 700.118 76.733C700.314 79.9094 700.516 83.0857 700.713 86.2621C700.943 89.9482 701.174 93.6344 701.404 97.3179C701.655 101.34 701.908 105.358 702.162 109.38C702.421 113.56 702.685 117.74 702.945 121.923C703.204 126.089 703.466 130.259 703.725 134.425C703.975 138.405 704.223 142.385 704.47 146.365C704.698 150.008 704.923 153.622 705.151 157.242Z" fill="#FE9126"/>
<path d="M603.661 104.268C603.664 104.255 603.664 104.239 603.667 104.226C605.102 102.672 607.015 101.791 609.013 101.602C610.673 101.444 612.378 101.767 613.853 102.501C613.975 104.485 614.086 106.478 614.149 108.512C614.135 108.571 614.112 108.632 614.092 108.691C613.449 110.544 611.883 112.247 609.83 112.548C607.764 112.847 605.682 111.627 604.635 109.93C603.596 108.248 603.425 106.203 603.661 104.268Z" fill="white"/>
<path d="M583.676 159.727L569.074 159.788C569.641 155.533 570.284 151.276 571.642 147.187C573.137 142.671 575.568 138.325 579.306 135.151C581.928 132.928 585.117 131.356 588.516 130.43C587.605 131.759 587.696 133.609 588.419 135.071C589.236 136.716 590.699 137.989 592.342 139.126C594.292 145.812 595.274 152.747 595.255 159.679L583.676 159.727Z" fill="#00BFFB"/>
<path d="M600.174 104.386C600.41 106.324 600.245 108.377 599.203 110.061C598.153 111.756 596.072 112.981 594.008 112.679C591.952 112.383 590.386 110.677 589.746 108.822C589.137 107.063 589.196 105.168 589.131 103.404C590.907 102.966 592.647 102.43 594.304 101.701C594.477 101.704 594.654 101.714 594.828 101.733C596.823 101.92 598.739 102.803 600.174 104.359C600.171 104.367 600.174 104.378 600.174 104.386Z" fill="white"/>
<path d="M613.791 101.455C613.811 101.805 613.836 102.152 613.856 102.504C612.382 101.77 610.676 101.447 609.017 101.604C607.018 101.791 605.105 102.675 603.67 104.228C603.667 104.242 603.667 104.258 603.664 104.271C602.565 103.815 601.239 103.86 600.177 104.388C600.177 104.38 600.174 104.37 600.174 104.359C598.739 102.803 596.823 101.919 594.828 101.733C594.654 101.717 594.477 101.703 594.304 101.701C594.623 101.562 594.941 101.412 595.255 101.257C598.967 99.4184 602.198 96.3168 603.035 92.4651L603.055 92.4705C605.72 92.1395 608.518 92.9589 610.511 94.6485C612.501 96.3381 613.646 98.8739 613.791 101.455Z" fill="#FFAE84"/>
<path d="M589.116 103.129C590.614 102.141 592.467 101.634 594.3 101.698C592.644 102.427 590.904 102.966 589.128 103.401C589.125 103.313 589.119 103.222 589.116 103.129Z" fill="white"/>
<path d="M614.722 103C614.636 104.784 614.73 106.711 614.15 108.512C614.087 106.478 613.976 104.485 613.854 102.501C614.155 102.651 614.446 102.819 614.722 103Z" fill="white"/>
<path d="M586.998 103.887L587.01 103.935C586.753 105.568 586.187 107.159 585.361 108.617C585.148 108.993 584.92 109.356 584.672 109.714C584.45 110.037 584.114 110.349 583.938 110.691C583.647 111.257 583.699 112.212 583.881 112.805C584.1 113.515 584.439 114.201 584.684 114.903C585.185 116.328 585.589 117.793 585.765 119.288C585.871 120.185 585.888 121.098 585.797 122.003C585.612 123.946 584.94 125.828 583.625 127.317C583.496 127.464 583.363 127.603 583.22 127.739C580.63 130.259 576.217 130.939 572.84 129.399C569.282 127.774 567.104 123.927 567.451 120.233C567.733 117.225 569.749 115.487 571.121 112.967C572.513 110.405 572.117 107.456 572.302 104.685C572.539 101.175 573.723 97.7183 575.73 94.7475C579.257 89.5265 585.17 85.8564 591.599 84.4924C594.95 83.7771 598.488 83.665 601.814 84.4871C603.892 84.9996 605.614 85.9258 607.394 87.0068C608.589 87.7355 610.03 88.1065 611.453 88.0665C612.154 88.0478 612.672 87.877 613.307 87.6688C614.084 87.4125 615.052 87.3805 615.869 87.3378C618.417 87.2123 621.079 87.7782 623.046 89.3023C625.975 91.5685 626.824 95.7271 625.46 99.0529C624.802 100.657 623.686 102.072 622.314 103.201C621.622 103.772 620.865 104.274 620.062 104.701C619.453 105.027 618.26 105.384 618.004 106.073C617.902 106.348 617.95 106.764 617.893 107.063C617.808 107.514 617.677 107.957 617.514 108.387C617.363 108.774 617.178 109.033 617.218 109.455C617.258 109.887 617.412 110.429 617.731 110.763C618.013 111.056 618.434 111.275 618.75 111.555C619.436 112.164 620.025 112.871 620.495 113.64C621.432 115.167 621.916 116.947 621.796 118.706C621.551 122.288 618.924 125.59 615.396 126.986C613.122 127.886 610.898 127.736 608.501 127.736C607.436 127.736 606.369 127.736 605.304 127.736C605.204 126.362 605.096 124.944 605.062 124.541C607.752 123.97 610.28 122.892 612.262 121.117C615.485 118.226 616.729 113.17 614.181 109.735C614.172 109.327 614.164 108.918 614.146 108.513C614.727 106.711 614.63 104.781 614.719 103.001C614.44 102.819 614.152 102.651 613.85 102.502C613.83 102.152 613.805 101.805 613.785 101.453C613.643 98.8714 612.495 96.3383 610.502 94.6487C608.512 92.9591 605.711 92.1397 603.046 92.4707L603.026 92.4653C602.189 96.317 598.958 99.4186 595.246 101.258C594.933 101.412 594.614 101.559 594.295 101.701C592.461 101.637 590.608 102.144 589.111 103.131C589.113 103.225 589.119 103.313 589.122 103.406C588.422 103.577 587.71 103.737 586.998 103.887Z" fill="#002169"/>
<path d="M648.871 115.084C651.547 112.463 654.297 109.89 657.454 107.8C657.958 107.466 658.493 107.135 659.103 107.026C659.709 106.919 660.412 107.079 660.76 107.562C661.309 108.329 660.714 109.34 660.119 110.077C658.579 111.988 656.95 113.84 655.086 115.816C656.071 115.773 657.061 116.323 657.497 117.158C657.93 117.991 657.787 119.061 657.235 119.862C658.357 119.95 659.37 120.756 659.646 121.776C659.923 122.796 659.441 123.959 658.65 124.715C659.655 125.377 660.179 126.626 659.917 127.75C659.658 128.876 658.633 129.813 657.537 130.053C657.406 130.923 657.042 131.756 656.509 132.477C656.244 132.829 655.937 133.157 655.595 133.448C655.274 133.723 654.989 133.964 654.884 134.383C654.542 135.768 654.388 137.209 654.123 138.608C654.095 138.771 654.061 138.936 654.027 139.099L641.91 135.418C641.967 135.255 642.024 135.093 642.081 134.93C642.366 134.126 642.65 133.32 642.929 132.517C643.157 131.871 643.527 131.092 643.339 130.398C643.245 130.053 643.006 129.709 642.872 129.373C641.799 126.679 641.828 123.604 643.001 120.946C644.122 118.415 646.263 116.309 648.871 115.084Z" fill="#FFAE84"/>
<path d="M593.541 125.587C593.615 126.305 593.686 127.021 593.763 127.736C590.247 127.736 586.734 127.736 583.224 127.736C583.363 127.602 583.5 127.461 583.628 127.314C584.943 125.825 585.615 123.943 585.8 122C588.211 123.123 590.785 123.954 593.427 124.461C593.464 124.84 593.501 125.211 593.541 125.587Z" fill="#002169"/>
<path d="M593.763 127.736C593.689 127.018 593.618 126.303 593.541 125.588C596.954 127.779 601.236 128.753 605.341 128.281C605.364 128.622 605.387 128.953 605.404 129.255C605.43 129.343 605.453 129.428 605.467 129.517C605.626 130.421 605.256 131.396 604.584 132.079C603.833 132.85 602.751 133.28 601.655 133.448C601.612 133.456 601.572 133.462 601.529 133.467C598.443 133.886 595.172 132.188 593.914 129.519L593.9 129.503L593.945 129.493C593.885 128.905 593.823 128.323 593.763 127.736Z" fill="#FFAE84"/>
<path d="M601.532 133.469C601.574 133.464 601.614 133.459 601.657 133.451L601.663 133.475C601.552 135.207 599.883 136.827 597.95 137.142C596.017 137.46 593.979 136.579 592.783 135.119C591.59 133.659 591.194 131.705 591.491 129.887L591.473 129.791C592.276 129.661 593.088 129.564 593.902 129.503L593.916 129.519C595.172 132.191 598.446 133.889 601.532 133.469Z" fill="#99E7FF"/>
<path d="M612.233 131.31C612.655 132.589 612.421 134.033 611.838 135.269C611.169 136.689 610.081 137.895 609.426 138.843C609.19 145.772 609.421 152.717 610.107 159.617L595.254 159.681C595.274 152.749 594.292 145.818 592.342 139.129C590.702 137.991 589.236 136.718 588.419 135.074C587.696 133.611 587.602 131.762 588.516 130.432C589.487 130.165 590.474 129.952 591.471 129.794L591.488 129.89C591.192 131.708 591.588 133.662 592.78 135.122C593.976 136.582 596.015 137.463 597.948 137.145C599.881 136.828 601.549 135.207 601.66 133.478C602.11 135.266 604.006 136.726 605.95 136.497C607.411 136.326 608.646 135.272 609.227 134.001C609.751 132.859 609.802 131.569 609.594 130.336C610.5 130.606 611.379 130.931 612.233 131.31Z" fill="#FFFBFF"/>
<path d="M621.427 159.566L610.107 159.615C609.421 152.715 609.19 145.769 609.427 138.84C610.082 137.893 611.169 136.689 611.838 135.266C612.422 134.03 612.655 132.586 612.234 131.308C613.811 132.002 615.286 132.872 616.601 133.875L635.317 154.167C635.872 152.584 636.433 151.001 636.988 149.413C638.121 146.196 639.254 142.977 640.387 139.758C640.897 138.312 641.406 136.865 641.916 135.421L654.032 139.102C653.79 140.367 653.54 141.627 653.275 142.889C652.677 145.737 652.022 148.572 651.311 151.396C650.636 154.095 649.902 156.78 649.119 159.452L621.427 159.566Z" fill="#00BFFB"/>
<path d="M583.676 159.727L595.255 159.679L610.107 159.615L621.426 159.567L649.115 159.449L700.158 159.233L705.274 159.212C705.428 161.635 705.578 164.059 705.729 166.488C705.729 169.17 706.874 172.048 704.904 174.378C702.279 177.482 697.445 177.149 693.65 177.165C690.552 177.175 687.458 177.186 684.363 177.199C680.722 177.21 677.084 177.223 673.442 177.237C669.377 177.25 665.309 177.269 661.243 177.282C656.865 177.295 652.486 177.309 648.108 177.327C643.829 177.343 639.558 177.354 635.285 177.373C634.986 177.373 634.684 177.375 634.385 177.375C629.731 177.391 625.076 177.41 620.421 177.424C617.025 177.434 613.631 177.448 610.238 177.461C609.017 177.466 607.79 177.469 606.568 177.474C602.101 177.488 597.637 177.506 593.171 177.52C588.971 177.536 584.775 177.552 580.573 177.565C576.758 177.578 572.94 177.594 569.128 177.605C565.815 177.618 562.495 177.629 559.181 177.642C555.42 177.656 552.369 176.746 550.145 173.609C547.6 170.022 547.58 164.075 547.58 159.924C547.58 159.914 547.58 159.903 547.577 159.89L552.844 159.868L569.08 159.799L583.676 159.727Z" fill="#FFD24C"/>
<path d="M842.071 131.131C841.969 133.205 841.869 135.282 841.764 137.356C839.367 140.636 835.432 142.897 831.222 143.394C826.869 143.904 820.167 142.31 819.165 139.31C819.168 139.304 819.168 139.299 819.168 139.294C827.509 139.256 835.808 136.296 842.071 131.131Z" fill="#FFC3A8"/>
<path d="M806.496 130.769C803.156 135.362 800.591 140.461 798.94 145.802C797.542 146.682 796.178 147.635 794.835 148.66C793.32 149.821 791.874 151.055 790.493 152.344C791.837 143.736 795.228 135.413 800.338 128.153C802.305 129.17 804.369 130.04 806.496 130.769Z" fill="#2E5BBF"/>
<path d="M610.391 218.067C607.931 218.067 605.531 216.661 604.373 214.611C603.137 212.422 603.308 209.638 604.666 207.513C605.916 205.554 608.159 204.003 610.548 203.491C615.618 203.509 620.706 203.547 625.816 203.603C631.968 203.672 638.149 203.771 644.364 203.904L644.284 214.531L644.255 218.513L610.391 218.577V218.067Z" fill="white"/>
<path d="M524.001 170.571L524.873 172.4C524.431 172.45 523.987 172.504 523.546 172.557L524.001 170.571Z" fill="#203F85"/>
<path d="M524.87 172.397L526.208 175.205L522.877 175.445L523.54 172.552C523.987 172.501 524.429 172.448 524.87 172.397Z" fill="#99E6FD"/>
<path d="M703.355 209.227C688.076 207.988 671.179 207.935 656.184 208.589C656.182 208.53 656.182 208.472 656.179 208.416C659.666 202.303 667.037 198.558 674.607 197.224C682.177 195.889 689.994 196.708 697.57 198.024C698.065 198.112 698.327 198.321 698.817 198.425L698.857 198.371C699.813 199.007 701.237 199.076 702.407 198.74C702.603 198.681 702.803 198.617 702.993 198.545H710.065C710.649 198.729 711.247 198.876 711.85 198.983C712.767 199.143 713.655 199.148 714.58 199.159C716.012 199.175 717.681 199.765 718.936 200.376C720.502 201.137 722.085 201.865 723.682 202.565C724.092 202.743 724.505 202.922 724.918 203.101C717.342 201.406 708.827 203.809 703.608 209.251C703.523 209.243 703.438 209.232 703.355 209.227Z" fill="white"/>
<path d="M546.359 170.827L546.738 172.624L545.371 172.405L546.359 170.827Z" fill="#203F85"/>
<path d="M617.93 225.162C617.398 228.522 616.868 231.883 616.336 235.243H509.619C510.134 232 510.644 228.755 511.156 225.512L617.93 225.162Z" fill="#21428A"/>
<path d="M509.619 235.241C509.212 237.827 508.802 240.411 508.397 242.997H500.027C500.944 237.176 501.866 231.357 502.783 225.538L511.156 225.511C510.644 228.755 510.134 232 509.619 235.241Z" fill="#2A53AD"/>
<path d="M601.278 203.477C604.361 203.477 607.45 203.48 610.548 203.493C608.159 204.006 605.913 205.557 604.666 207.516C603.308 209.641 603.137 212.425 604.373 214.613C605.529 216.663 607.929 218.07 610.391 218.07V218.582L575.887 218.647V218.07C573.427 218.07 571.024 216.663 569.868 214.613C568.633 212.425 568.803 209.641 570.159 207.516C571.514 205.394 573.968 203.961 576.576 203.595C584.758 203.525 592.994 203.48 601.278 203.477Z" fill="#00BFFB"/>
<path d="M546.737 172.624L547.255 175.059L544.013 174.578L545.371 172.405L546.737 172.624Z" fill="#99E6FD"/>
<path d="M514.826 173.441C515.908 177.989 516.993 182.535 518.077 187.083C517.981 187.083 517.889 187.083 517.793 187.083C517.007 187.083 516.221 187.083 515.435 187.083C515.176 187.083 514.914 187.083 514.655 187.083C513.628 182.764 512.597 178.445 511.566 174.127L514.826 173.441Z" fill="#59D9FD"/>
<path d="M656.261 218.494L644.256 218.516L644.284 214.533H656.247C656.25 215.86 656.25 217.189 656.261 218.494Z" fill="#FFD24C"/>
<path d="M526.211 175.205C526.527 179.166 526.846 183.122 527.164 187.083C526.046 187.083 524.93 187.083 523.814 187.083C523.503 183.205 523.193 179.327 522.88 175.446L526.211 175.205Z" fill="#0A81D1"/>
<path d="M616.336 235.241C616.868 231.88 617.397 228.52 617.93 225.159L626.303 225.13C625.767 228.533 625.229 231.931 624.691 235.334C624.29 237.889 623.888 240.443 623.484 242.998H615.114C615.521 240.414 615.928 237.83 616.336 235.241Z" fill="#2A53AD"/>
<path d="M529.573 187.059C530.026 174.733 530.419 160.26 530.908 149.485H537.325C536.967 157.412 536.656 167.342 536.34 176.943L536.338 177.009L535.036 176.961C534.891 180.333 534.743 183.701 534.598 187.072V187.083C533.081 187.083 531.56 187.083 530.046 187.083C529.886 187.083 529.733 187.083 529.573 187.083V187.059Z" fill="#58D7FC"/>
<path d="M538.373 177.084C538.23 180.415 538.079 183.749 537.937 187.083C537.513 187.083 537.092 187.083 536.667 187.083C535.976 187.083 535.287 187.083 534.598 187.083V187.072C534.743 183.701 534.891 180.333 535.036 176.961L536.337 177.009L538.373 177.084Z" fill="#0A81D1"/>
<path d="M656.25 214.533C656.247 212.497 656.242 210.474 656.185 208.589C671.179 207.935 688.076 207.989 703.355 209.227L703.375 218.404L656.261 218.494C656.25 217.189 656.25 215.86 656.25 214.533Z" fill="#EBEBEB"/>
<path d="M547.255 175.059C546.478 179.046 545.703 183.037 544.926 187.025L544.929 187.059C544.77 187.07 544.624 187.083 544.513 187.083C543.91 187.083 543.306 187.083 542.703 187.083C542.33 187.083 541.96 187.083 541.584 187.083V187.059C542.393 182.901 543.201 178.739 544.012 174.578L547.255 175.059Z" fill="#59D9FD"/>
<path d="M518.081 187.083C519.894 187.083 521.713 187.083 523.53 187.083C523.626 187.083 523.717 187.083 523.814 187.083C524.93 187.083 526.046 187.083 527.165 187.083C527.965 187.083 528.771 187.083 529.574 187.083C529.733 187.083 529.887 187.083 530.046 187.083C531.561 187.083 533.081 187.083 534.598 187.083C535.287 187.083 535.976 187.083 536.668 187.083C537.092 187.083 537.514 187.083 537.938 187.083C539.153 187.083 540.369 187.083 541.585 187.083C541.958 187.083 542.328 187.083 542.704 187.083C543.307 187.083 543.911 187.083 544.514 187.083C544.625 187.083 544.77 187.069 544.93 187.059C545.365 187.029 545.895 187.029 545.995 187.443C546.057 187.697 545.921 188.1 545.889 188.356C545.804 189.053 545.716 189.752 545.63 190.446C545.417 192.186 545.203 193.927 544.99 195.667C544.742 197.674 544.494 199.679 544.249 201.683C543.999 203.717 543.748 205.757 543.498 207.79C543.27 209.622 543.045 211.453 542.823 213.284C542.65 214.674 542.479 216.065 542.308 217.453C542.254 217.869 542.203 218.288 542.154 218.705L517.471 218.75C517.457 218.627 517.44 218.505 517.426 218.379C517.275 217.178 517.127 215.972 516.982 214.77C516.768 213.051 516.557 211.335 516.347 209.616C516.102 207.617 515.854 205.62 515.609 203.624C515.359 201.582 515.108 199.54 514.855 197.501C514.627 195.651 514.4 193.801 514.175 191.954C513.998 190.531 513.83 189.109 513.648 187.689C513.577 187.112 513.924 187.08 514.419 187.08C514.496 187.08 514.579 187.08 514.656 187.08C514.915 187.08 515.177 187.08 515.436 187.08C516.222 187.08 517.007 187.08 517.793 187.08C517.893 187.083 517.984 187.083 518.081 187.083Z" fill="#00BFFB"/>
<path d="M797.711 113.064C797.873 114.532 797.935 116.035 797.563 117.468C797.19 118.904 796.324 120.273 794.98 121.039C793.907 121.648 792.623 121.816 791.37 121.664C790.642 120.925 789.953 120.148 789.312 119.334C787.524 117.073 786.135 114.598 785.062 111.991C783.812 108.961 782.992 105.753 782.482 102.483C784.151 100.951 786.548 99.9766 788.934 100.532C791.695 101.172 793.975 103.113 795.387 105.427C796.794 107.744 797.417 110.411 797.711 113.064Z" fill="#FFA995"/>
<path d="M842.091 130.702C842.086 130.846 842.077 130.988 842.072 131.132C835.808 136.297 827.509 139.257 819.168 139.294C819.373 137.428 819.589 135.498 819.803 133.579C826.228 134.18 832.771 133.734 838.889 131.842C839.976 131.505 841.047 131.124 842.091 130.702Z" fill="#FF8570"/>
<path d="M919.826 107.992L924.842 117.428C923.576 118.076 922.388 118.872 921.361 119.819L916.006 109.756L915.997 109.618C917.272 109.177 918.519 108.651 919.715 108.045L919.826 107.992Z" fill="#FDC242"/>
<path d="M886.213 162.382C880.525 158.197 874.836 154.012 869.148 149.826C861.157 143.946 851.987 137.252 841.829 137.407L841.764 137.361C841.764 137.359 841.764 137.359 841.764 137.356C839.367 140.636 835.432 142.897 831.222 143.394C826.869 143.904 820.167 142.31 819.165 139.31C819.165 139.304 819.162 139.299 819.162 139.294C818.909 139.296 818.65 139.296 818.396 139.291C810.673 140.039 804.515 142.31 798.94 145.801C797.543 146.682 796.179 147.635 794.835 148.66C793.321 149.821 791.874 151.054 790.494 152.344C785.617 156.892 781.489 162.156 777.56 167.467C774.132 172.104 771.744 175.285 768.171 179.759C774.816 187.572 781.46 195.382 788.105 203.195C788.452 203.598 788.797 204.003 789.138 204.409C789.272 203.619 789.406 202.832 789.546 202.044C790.596 195.996 791.709 189.955 792.894 183.931C795.049 168.575 804.287 153.972 817.813 144.694C821.155 147.462 825.642 149.01 830.106 148.879C832.793 148.802 835.446 148.113 837.821 146.933C842.658 168.519 856.963 186.541 867.773 196.575C870.133 198.766 872.328 200.576 874.222 201.959C872.835 200.768 871.992 199.079 872.163 197.194C872.214 196.628 872.274 196.065 872.345 195.502C873.037 189.953 874.7 184.494 877.53 179.58C880.638 174.167 885.598 169.216 891.235 166.079C889.558 164.843 887.887 163.61 886.213 162.382Z" fill="#FE9126"/>
<path d="M938.064 127.726C938.368 128.646 938.351 129.634 938.269 130.595C938.143 130.574 938.015 130.558 937.881 130.558C937.249 130.552 936.637 130.747 936.056 130.979C933.523 131.983 931.325 133.723 929.844 135.901C929.796 135.971 929.751 136.04 929.708 136.115C928.643 136.473 927.342 136.043 926.642 135.191C925.879 134.268 925.759 132.971 926.106 131.849C926.195 131.561 926.311 131.284 926.454 131.014C926.858 130.237 927.447 129.543 928.091 128.921C929.449 127.616 931.097 126.575 932.899 125.892C933.711 125.585 934.599 125.347 935.45 125.446C935.655 125.47 935.86 125.513 936.056 125.579C937.047 125.913 937.748 126.783 938.064 127.726Z" fill="#FFC3A8"/>
<path d="M921.358 119.819C922.385 118.872 923.572 118.077 924.839 117.428C925.249 117.22 925.668 117.025 926.092 116.849C927.12 116.416 928.21 116.077 929.338 116.053C930.462 116.024 931.629 116.342 932.441 117.076C933.246 117.81 933.622 118.995 933.195 119.972L933.198 120.006C932.609 120.044 932.002 120.193 931.45 120.383C929.027 121.194 926.809 122.534 925.019 124.266C924.464 124.803 923.945 125.385 923.553 126.031C923.293 125.985 923.04 125.887 922.821 125.75C923.145 125.516 923.461 125.265 923.76 124.998C924.577 124.264 925.278 123.335 925.375 122.275C925.471 121.218 924.777 120.052 923.664 119.854C922.841 119.707 922.035 120.089 921.283 120.433C921.002 120.562 920.72 120.69 920.435 120.81L920.421 120.775C920.714 120.441 921.03 120.124 921.358 119.819Z" fill="#FFC3A8"/>
<path d="M863.628 36.9351C863.525 36.7349 863.4 36.5267 863.258 36.3079C869.891 38.2831 872.823 42.1534 874.235 45.1376C874.793 46.3174 875.115 47.3557 875.329 48.087C878.634 59.287 878.657 70.9755 877.754 82.6345C877.598 84.6471 877.415 86.6597 877.219 88.6669C875.761 100.58 870.446 97.9157 869.831 96.3035C869.219 94.6886 869.35 92.9243 869.458 91.2133C869.678 87.746 869.766 84.2734 869.74 80.8035C869.74 80.4351 869.735 80.0721 869.729 79.7064C869.549 66.9263 867.827 54.1595 865.251 41.5929C864.929 39.962 864.377 38.4032 863.628 36.9351Z" fill="#2E5BBF"/>
<path d="M782.476 102.483C782.989 105.75 783.806 108.961 785.056 111.99L784.93 112.036C781.756 112.594 778.254 111.649 776.048 109.412C773.779 107.111 772.965 103.868 772.635 100.753C772.401 98.551 772.367 96.3302 772.524 94.1228C772.666 92.1476 772.965 90.183 773.42 88.2479C773.993 85.8162 774.869 83.3312 776.748 81.5722C778.123 80.2856 780.159 79.5062 782.038 79.6877C781.898 84.5777 781.628 89.473 781.762 94.3603C781.842 97.0589 782.052 99.7895 782.476 102.483Z" fill="#FE9126"/>
<path d="M804.429 96.122C806.7 96.122 808.54 94.3963 808.54 92.2676C808.54 90.139 806.7 88.4133 804.429 88.4133C802.159 88.4133 800.318 90.139 800.318 92.2676C800.318 94.3963 802.159 96.122 804.429 96.122Z" fill="black"/>
<path d="M874.17 110.619C872.901 111.705 871.412 112.581 869.818 113.117H869.815C866.045 113.557 863.176 110.573 861.692 107.635C860.058 104.397 859.779 100.7 860.021 97.1286C860.312 92.8552 861.382 88.4777 864.158 85.0744C865.661 83.2354 867.583 81.6819 869.735 80.8037C869.761 84.2737 869.672 87.7463 869.453 91.2136C869.345 92.9246 869.214 94.6889 869.826 96.3038C870.438 97.916 875.753 100.577 877.214 88.6672C877.41 86.6599 877.593 84.6474 877.749 82.6348L877.806 82.6375C878.876 83.5984 879.642 84.7141 880.192 85.8325C880.855 87.1831 881.205 88.5391 881.39 89.6361C881.971 93.0207 881.276 96.4853 880.3 99.7898C879.805 101.471 879.221 103.156 878.464 104.754C877.661 106.46 876.662 108.067 875.363 109.476C874.996 109.877 874.595 110.261 874.17 110.619Z" fill="#FFD24C"/>
<path d="M819.167 139.294C819.167 139.299 819.167 139.305 819.165 139.31C819.165 139.305 819.162 139.299 819.162 139.294C819.165 139.296 819.165 139.296 819.167 139.294Z" fill="#A66E6E"/>
<path d="M923.555 126.03C923.948 125.382 924.464 124.8 925.022 124.266C926.812 122.534 929.03 121.194 931.453 120.382C932.005 120.195 932.611 120.043 933.201 120.006C933.864 119.963 934.51 120.067 935.046 120.433C935.8 120.943 936.127 121.869 936.113 122.737C936.099 123.609 935.789 124.445 935.478 125.27L935.453 125.446C934.604 125.347 933.713 125.582 932.902 125.892C931.1 126.575 929.449 127.616 928.093 128.921C927.447 129.543 926.858 130.237 926.456 131.014C925.437 131.438 924.136 131 923.479 130.144C922.795 129.249 922.735 128.03 923.1 126.989C923.211 126.655 923.367 126.335 923.555 126.03Z" fill="#FFC3A8"/>
<path d="M875.593 112.658C876.231 113.717 876.644 114.849 876.285 115.981C875.884 117.257 874.514 118.14 873.105 118.271C871.693 118.402 870.281 117.879 869.282 116.976C868.937 119.526 866.293 121.365 863.591 121.802C861.291 122.176 858.95 121.76 856.67 121.228L856.604 121.17C859.124 118.749 861.384 116.069 863.355 113.224L863.357 113.216C863.955 113.413 864.573 113.552 865.211 113.627C866.777 113.813 868.34 113.611 869.817 113.114H869.82C871.414 112.578 872.903 111.705 874.173 110.616C874.281 110.773 874.392 110.923 874.5 111.069C874.876 111.574 875.263 112.108 875.593 112.658Z" fill="#002169"/>
<path d="M831.719 106.121C832.349 109.479 830.868 113.112 828.013 115.22C825.157 117.332 821.044 117.831 817.71 116.472C815.754 115.677 814.114 114.262 813.032 112.546C812.531 111.748 811.763 109.951 811.657 109.012C811.654 109.012 825.909 107.119 831.719 106.121Z" fill="white"/>
<path d="M881.76 203.462L881.772 203.499L878.222 243H863.979C865.169 227.847 866.601 211.664 867.773 196.572C870.136 198.764 872.329 200.574 874.222 201.956C875.375 202.954 876.906 203.606 878.541 203.747C879.625 203.841 880.71 203.729 881.76 203.462Z" fill="#203F85"/>
<path d="M889.493 204.3L885.809 242.998H878.219L881.769 203.496L881.757 203.459C882.651 203.229 883.514 202.888 884.331 202.458C885.293 202.882 886.273 203.269 887.275 203.619C888.004 203.875 888.744 204.102 889.493 204.3Z" fill="#2E5BBF"/>
<path d="M843.031 130.307C842.717 130.589 842.396 130.864 842.071 131.131C842.077 130.987 842.086 130.846 842.091 130.702C842.41 130.573 842.72 130.445 843.031 130.307Z" fill="#A66E6E"/>
<path d="M832.095 96.2422C834.366 96.2422 836.206 94.5166 836.206 92.3879C836.206 90.2592 834.366 88.5336 832.095 88.5336C829.825 88.5336 827.984 90.2592 827.984 92.3879C827.984 94.5166 829.825 96.2422 832.095 96.2422Z" fill="black"/>
<path d="M819.162 139.294C818.909 139.297 818.65 139.297 818.396 139.291C818.641 139.262 818.889 139.241 819.137 139.222C819.145 139.246 819.154 139.267 819.162 139.294Z" fill="#A66E6E"/>
<path d="M869.726 79.7066C869.731 80.0723 869.737 80.4353 869.737 80.8036C867.585 81.6845 865.663 83.2353 864.16 85.0744C861.384 88.4776 860.314 92.8551 860.023 97.1285C859.781 100.703 860.06 104.399 861.695 107.634C863.178 110.571 866.048 113.557 869.817 113.117C868.339 113.613 866.776 113.816 865.211 113.629C864.573 113.555 863.955 113.413 863.357 113.218C860.396 112.252 857.965 109.927 856.604 107.237C854.973 104.002 854.691 100.302 854.933 96.7308C855.073 94.6381 855.403 92.5241 856.026 90.5089C856.678 88.4055 857.652 86.4143 859.07 84.6766C861.683 81.4736 865.572 79.138 869.726 79.7066Z" fill="#FE9126"/>
<path d="M776.749 81.5695C774.873 83.3285 773.993 85.8136 773.421 88.2452C772.965 90.1777 772.666 92.1449 772.524 94.1201L772.504 94.1174C773.088 86.1525 775.396 78.3051 779.24 71.181C780.176 71.229 781.113 71.2264 782.047 71.1757C782.161 74.0104 782.121 76.8477 782.041 79.6877C780.159 79.5036 778.124 80.283 776.749 81.5695Z" fill="#2E5BBF"/>
<path d="M818.396 139.291C810.673 140.038 804.515 142.31 798.94 145.801C800.594 140.46 803.16 135.362 806.496 130.768C809.261 131.719 812.127 132.437 815 132.936C816.589 133.213 818.188 133.43 819.8 133.582C819.586 135.501 819.373 137.431 819.165 139.296C819.162 139.299 819.162 139.299 819.159 139.296C819.151 139.272 819.142 139.248 819.137 139.224C818.889 139.24 818.641 139.262 818.396 139.291Z" fill="#203F85"/>
<path d="M869.148 149.827C861.157 143.946 851.987 137.252 841.829 137.407L841.764 137.362C841.764 137.359 841.764 137.359 841.764 137.356C841.869 135.282 841.969 133.206 842.071 131.132C842.396 130.865 842.717 130.59 843.031 130.307C848.109 128.118 852.673 124.958 856.602 121.17L856.667 121.229C858.948 121.76 861.285 122.176 863.588 121.803C866.29 121.365 868.935 119.526 869.279 116.977C870.278 117.879 871.691 118.402 873.103 118.271C874.515 118.141 875.884 117.257 876.283 115.981C876.641 114.849 876.228 113.718 875.591 112.658C878.395 112.143 881.225 111.833 884.052 112.148C888.311 112.626 892.618 114.82 894.261 118.536C895.955 122.382 894.491 126.73 893.199 130.71C889.84 141.048 887.73 151.663 886.213 162.38C880.525 158.197 874.836 154.009 869.148 149.827Z" fill="#203F85"/>
<path d="M884.334 202.463C880.089 200.595 876.186 198.059 872.343 195.499C873.035 189.95 874.697 184.491 877.527 179.577C880.636 174.164 885.595 169.213 891.232 166.077C891.995 166.637 892.761 167.2 893.521 167.761C894.378 168.391 895.238 169.026 896.095 169.656L896.154 169.688C902.139 159.372 908.174 148.988 914.491 138.215C912.911 134.596 911.437 130.507 912.98 126.877C913.654 125.286 914.856 123.962 916.254 122.881C916.957 122.336 917.418 121.96 918.284 121.653C919.01 121.397 919.73 121.117 920.439 120.815C920.723 120.695 921.005 120.569 921.287 120.439C922.039 120.094 922.844 119.713 923.667 119.859C924.78 120.06 925.472 121.223 925.378 122.28C925.281 123.34 924.581 124.266 923.764 125.003C923.465 125.272 923.152 125.521 922.824 125.756C923.046 125.892 923.297 125.99 923.556 126.036C923.368 126.34 923.212 126.66 923.095 126.994C922.73 128.038 922.79 129.255 923.474 130.149C924.131 131.003 925.432 131.441 926.451 131.019C926.312 131.289 926.195 131.566 926.104 131.855C925.757 132.976 925.876 134.27 926.639 135.197C927.342 136.048 928.644 136.48 929.705 136.12C929.751 136.048 929.794 135.976 929.842 135.907C931.322 133.729 933.517 131.988 936.054 130.985C936.635 130.755 937.247 130.557 937.879 130.563C938.013 130.563 938.141 130.576 938.266 130.6C939.453 130.832 940.082 132.092 940.102 133.195C940.119 134.025 939.858 134.836 939.561 135.621C938.258 139.075 936.191 142.633 933.56 145.356C931.98 146.989 931.112 148.85 930.653 151.017C930.272 152.829 929.882 154.642 929.475 156.446C928.672 160.017 927.809 163.576 926.83 167.107C924.595 175.179 921.737 183.135 917.663 190.567C914.765 195.852 910.973 201.097 905.242 203.64C900.382 205.794 894.7 205.701 889.493 204.305C888.741 204.105 888.004 203.878 887.278 203.627C886.276 203.275 885.296 202.885 884.334 202.463Z" fill="#FFC3A8"/>
<path d="M891.232 166.074C889.558 164.843 887.886 163.61 886.212 162.38C887.727 151.663 889.839 141.047 893.199 130.71C894.491 126.73 895.955 122.379 894.261 118.535C892.621 114.82 888.311 112.626 884.052 112.148C881.227 111.833 878.395 112.143 875.591 112.658C875.26 112.105 874.873 111.574 874.497 111.072C874.386 110.925 874.275 110.776 874.17 110.618C874.594 110.261 874.996 109.876 875.366 109.473C876.664 108.064 877.66 106.457 878.466 104.752L878.605 104.808C882.432 104.391 886.266 104.279 890.036 104.938C896.256 106.027 902.363 109.687 904.327 115.324C906.3 120.999 903.772 127.077 901.694 132.719C897.549 143.967 895.081 155.944 893.52 167.758C892.76 167.198 891.994 166.634 891.232 166.074Z" fill="#2E5BBF"/>
<path d="M837.821 146.93C835.447 148.11 832.793 148.796 830.106 148.876C825.642 149.007 821.155 147.462 817.813 144.691C804.287 153.969 795.049 168.572 792.894 183.928C791.709 189.955 790.596 195.993 789.546 202.042C789.409 202.829 789.272 203.616 789.139 204.406C788.353 209.013 787.604 213.623 786.901 218.244C786.576 220.366 786.258 222.488 785.953 224.61C785.432 228.184 784.937 231.76 784.467 235.337C784.128 237.892 783.803 240.443 783.493 243H848.406C851.048 223.368 853.69 203.734 856.332 184.102C848.514 174.18 841.052 161.352 837.821 146.93Z" fill="#FFFBFF"/>
<path d="M867.773 196.569C864.186 193.241 860.214 189.026 856.331 184.099C853.689 203.731 851.047 223.365 848.405 242.997H863.975C865.165 227.844 866.597 211.664 867.773 196.569Z" fill="#FFE8E8"/>
<path d="M885.179 63.0374C885.176 63.0053 885.176 62.9733 885.173 62.9413C884.686 55.8065 880.783 48.4395 874.232 45.135C874.79 46.3148 875.112 47.3531 875.326 48.0845C876.88 53.3508 877.709 58.7266 878.056 64.1584C878.446 70.2736 878.23 76.4581 877.751 82.632L877.808 82.6346C878.879 83.5955 879.644 84.7113 880.194 85.8297C882.992 78.452 885.688 70.8314 885.179 63.0374Z" fill="#002169"/>
<path d="M865.248 41.5928C864.932 39.9619 864.377 38.4031 863.628 36.935C863.526 36.7348 863.4 36.5266 863.258 36.3078C859.514 30.7131 841.14 19.1661 809.733 26.2182C805.816 27.0963 801.699 28.2655 797.377 29.7709C794.619 30.7318 791.738 31.3484 788.808 31.626C783.257 32.1545 777.682 32.6029 772.618 34.7142C767.143 36.9964 762.568 41.2645 760.464 46.5228C758.357 51.7838 758.861 57.979 762.118 62.6955C765.776 67.9965 772.455 70.8472 779.242 71.1836C780.179 71.2316 781.116 71.2289 782.05 71.1782C782.941 71.1302 783.826 71.0421 784.7 70.906C791.043 69.921 796.817 66.9876 801.873 63.192C802.681 64.1022 803.606 64.9243 804.623 65.6156C808.916 68.5517 814.465 69.4939 819.771 69.2457C827.358 68.888 834.777 66.1574 840.676 61.6785C840.528 65.5142 841.226 69.3498 843.039 72.7771C843.982 74.5521 845.24 76.1776 846.737 77.5763C847.483 78.273 848.292 78.9162 849.152 79.4901C850.302 80.2588 851.238 80.8781 851.623 82.1967C852.055 83.6674 852.574 85.1008 853.271 86.4808C853.977 87.8767 854.823 89.2087 855.799 90.4472L856.027 90.5086C856.679 88.4053 857.652 86.414 859.07 84.6764C861.687 81.476 865.575 79.1404 869.726 79.7063C869.641 73.5565 869.194 67.412 868.471 61.2915C867.688 54.6879 866.583 48.1136 865.248 41.5928Z" fill="#002169"/>
<path d="M919.783 107.915L917.597 105.953L915.783 106.719L915.994 109.62C917.269 109.18 918.516 108.654 919.712 108.048L919.823 107.995L919.783 107.915Z" fill="#FD7D42"/>
<path d="M915.602 104.161L915.784 106.711V106.716L917.597 105.953L915.602 104.161Z" fill="#002169"/>
<path d="M635.282 177.431V177.367C634.983 177.367 634.681 177.37 634.382 177.37C629.727 177.386 625.073 177.404 620.418 177.418C617.022 177.428 613.628 177.442 610.234 177.455V177.591L607.282 186.122H632.139C633.186 183.226 634.234 180.327 635.282 177.431Z" fill="#FE9126"/>
<path d="M607.282 186.122L601.278 203.477C604.362 203.477 607.45 203.48 610.548 203.493C615.618 203.512 620.706 203.55 625.816 203.606C627.923 197.779 630.029 191.949 632.139 186.122H607.282Z" fill="#FFD24C"/>
<path d="M626.303 225.132C625.768 228.536 625.229 231.934 624.691 235.337H768.524L766.707 224.652L626.303 225.132Z" fill="#21428A"/>
<path d="M772.452 218.273L771.408 218.276L703.375 218.404L656.261 218.494L644.255 218.516L610.391 218.58L575.887 218.644L542.153 218.708L517.474 218.753L491.37 218.804V225.576L502.783 225.539L511.156 225.512L617.93 225.162L626.303 225.133L772.452 224.652V218.273Z" fill="#2E5BBF"/>
<path d="M873.586 45.567C873.925 45.7325 874.304 45.9167 874.665 45.8073C875.286 45.6231 875.303 44.809 875.149 44.2164C873.962 39.6734 869.675 35.9873 864.744 35.2693C864.078 35.1732 863.221 35.2212 862.967 35.8058C862.705 36.4117 863.317 37.0016 863.745 37.5194C864.536 38.4803 864.786 39.7268 865.014 40.9226C865.171 41.7501 865.134 43.413 865.615 44.1043C866.082 44.7796 866.999 44.3472 867.924 44.3312C869.88 44.2992 871.847 44.7209 873.586 45.567Z" fill="#00BFFB"/>
<path d="M787.664 127.39C788.666 128.988 790.283 130.24 792.145 130.859C792.84 131.092 793.6 131.239 794.312 131.052C795.02 130.865 795.65 130.27 795.633 129.578C795.618 128.97 795.132 128.457 794.585 128.132C794.038 127.806 793.412 127.608 792.865 127.28C791.519 126.471 790.582 124.611 788.877 124.36C786.921 124.069 786.969 126.282 787.664 127.39Z" fill="#2E5BBF"/>
<path d="M612.182 63.502V63.5585H612.947C612.686 63.5585 612.429 63.5396 612.182 63.502Z" fill="#7964FF"/>
<path d="M612.948 55.4652C610.987 55.4652 609.381 56.9706 609.381 58.8097C609.381 59.7279 609.782 60.5634 610.429 61.172C611.075 61.7779 611.969 62.1542 612.948 62.1542H622.138C624.099 62.1542 625.705 60.6488 625.705 58.8097C625.705 57.8915 625.304 57.0561 624.657 56.4475C624.011 55.8416 623.12 55.4652 622.138 55.4652H612.948Z" fill="white"/>
<path d="M607.883 54.0625C605.09 54.0625 602.815 56.1925 602.815 58.8137C602.815 61.4295 605.087 63.5622 607.883 63.5622H612.179V63.5061C609.748 63.1618 607.883 61.1893 607.883 58.8137C607.883 56.1952 610.152 54.0625 612.948 54.0625H607.883Z" fill="#2E5BBF"/>
<path d="M625.702 58.8094C625.702 57.8912 625.3 57.0557 624.654 56.4472C624.008 55.8413 623.117 55.4649 622.135 55.4649H612.945C610.983 55.4649 609.378 56.9703 609.378 58.8094C609.378 59.7276 609.779 60.5631 610.425 61.1716C611.071 61.7776 611.965 62.1539 612.945 62.1539H622.135C624.096 62.1566 625.702 60.6485 625.702 58.8094ZM615.1 63.5579H612.948C612.686 63.5579 612.429 63.5392 612.182 63.5019C609.75 63.1575 607.886 61.185 607.886 58.8094C607.886 56.1909 610.155 54.0582 612.95 54.0582H617.076H622.14C624.933 54.0582 627.208 56.1883 627.208 58.8094C627.208 61.4252 624.936 63.5579 622.14 63.5579H618.172H615.1Z" fill="#00BFFB"/>
<path d="M612.182 63.558V64.7431C613.89 64.7431 615.604 64.7431 617.312 64.7431C617.596 64.7431 617.884 64.7431 618.169 64.7431V63.558H615.103H612.95H612.182Z" fill="#2E5BBF"/>
<path d="M620.953 58.8067C620.953 59.3192 621.397 59.7356 621.944 59.7356C622.49 59.7356 622.935 59.3192 622.935 58.8067C622.935 58.2942 622.49 57.8778 621.944 57.8778C621.397 57.8778 620.953 58.2942 620.953 58.8067Z" fill="#2E5BBF"/>
<path d="M616.917 60.3819C617.845 59.3528 617.707 57.8134 616.609 56.9437C615.512 56.074 613.87 56.2032 612.942 57.2323C612.015 58.2614 612.153 59.8008 613.25 60.6705C614.348 61.5402 615.99 61.411 616.917 60.3819Z" fill="#00BFFB"/>
<path d="M613.938 58.8066C613.938 59.3164 614.38 59.7301 614.923 59.7301C615.467 59.7301 615.909 59.3164 615.909 58.8066C615.909 58.2968 615.467 57.8831 614.923 57.8831C614.38 57.8831 613.938 58.2968 613.938 58.8066Z" fill="#2E5BBF"/>
<path d="M836.414 79.1006C836.147 79.1006 835.876 79.0152 835.654 78.8444C833.969 77.5365 831.352 76.023 828.477 76.2312C827.808 76.2793 827.244 75.8148 827.193 75.1983C827.142 74.5817 827.634 74.0425 828.295 73.9944C831.973 73.7302 835.156 75.5453 837.18 77.1174C837.69 77.5125 837.761 78.2198 837.34 78.6949C837.1 78.9618 836.759 79.1006 836.414 79.1006Z" fill="#002169"/>
<path d="M796.278 80.1574C795.993 80.1574 795.706 80.0613 795.475 79.8665C794.986 79.4501 794.949 78.7427 795.39 78.2836C797.277 76.3271 799.971 75.0699 802.772 74.835C803.424 74.7763 804.01 75.2354 804.07 75.852C804.13 76.4686 803.643 77.0131 802.986 77.0691C800.773 77.256 798.652 78.2463 797.164 79.7891C796.93 80.0319 796.606 80.1574 796.278 80.1574Z" fill="#002169"/>
<path d="M810.829 105.286C810.724 105.286 810.615 105.259 810.516 105.203C809.457 104.594 807.945 103.62 807.017 102.168C806.055 100.663 805.935 98.901 806.709 97.5664C807.33 96.4961 808.551 95.6766 810.06 95.3163C811.316 95.0173 812.568 95.036 813.963 95.0921C814.294 95.1054 814.55 95.367 814.536 95.6739C814.521 95.9836 814.251 96.2211 813.912 96.2105C812.614 96.1597 811.452 96.1411 810.354 96.4026C809.166 96.6856 808.218 97.3048 807.757 98.1029C807.193 99.0745 807.304 100.444 808.042 101.592C808.833 102.83 810.188 103.7 811.139 104.247C811.421 104.41 811.509 104.755 811.336 105.019C811.228 105.19 811.031 105.286 810.829 105.286Z" fill="#FF8570"/>
<path d="M921.634 136.539C921.566 136.539 921.498 136.528 921.429 136.504C921.119 136.398 920.96 136.075 921.073 135.786C921.799 133.929 921.717 131.783 920.846 129.898C920.635 129.439 920.376 129.001 920.083 128.598C920.023 128.516 919.963 128.443 919.912 128.377C919.704 128.118 919.471 127.827 919.553 127.437C919.63 127.063 919.969 126.831 920.253 126.671C921.375 126.039 922.454 125.403 923.351 124.597C924.231 123.802 924.715 123.006 924.783 122.232C924.851 121.485 924.364 120.553 923.556 120.409C922.944 120.302 922.255 120.617 921.589 120.924L921.549 120.943C921.253 121.079 920.894 120.964 920.749 120.687C920.604 120.409 920.726 120.073 921.022 119.937L921.062 119.918C921.865 119.55 922.776 119.131 923.778 119.309C925.278 119.576 926.084 121.084 925.973 122.328C925.879 123.383 925.273 124.418 924.177 125.406C923.192 126.295 922.05 126.965 920.868 127.632C920.854 127.64 920.84 127.648 920.829 127.656C920.843 127.675 920.857 127.691 920.868 127.707C920.931 127.784 920.999 127.872 921.071 127.968C921.409 128.43 921.703 128.932 921.945 129.458C922.935 131.604 923.026 134.051 922.198 136.176C922.107 136.398 921.879 136.539 921.634 136.539Z" fill="#FF8570"/>
<path d="M925.614 131.732C924.629 131.732 923.604 131.273 922.989 130.472C922.24 129.495 922.066 128.129 922.528 126.815C922.869 125.839 923.527 124.904 924.592 123.877C926.442 122.086 928.745 120.698 931.251 119.857C932.019 119.598 932.691 119.465 933.312 119.443C933.653 119.43 933.918 119.673 933.93 119.982C933.941 120.292 933.682 120.551 933.354 120.562C932.868 120.578 932.295 120.695 931.655 120.911C929.32 121.693 927.177 122.991 925.451 124.656C924.518 125.558 923.951 126.356 923.666 127.165C923.33 128.126 923.444 129.143 923.963 129.818C924.506 130.526 925.577 130.822 926.303 130.464C926.596 130.32 926.957 130.424 927.111 130.699C927.265 130.974 927.154 131.313 926.861 131.457C926.476 131.644 926.049 131.732 925.614 131.732Z" fill="#FF8570"/>
<path d="M931.362 139.734C930.266 139.734 929.181 139.321 928.763 138.378C928.412 137.596 928.603 136.686 929.341 135.6C930.881 133.331 933.184 131.508 935.823 130.462C936.404 130.232 937.101 129.997 937.861 129.997C937.867 129.997 937.875 129.997 937.881 129.997C938.211 130 938.476 130.251 938.476 130.56C938.473 130.87 938.214 131.121 937.875 131.118C937.873 131.118 937.867 131.118 937.861 131.118C937.315 131.118 936.76 131.308 936.287 131.495C933.867 132.453 931.758 134.124 930.348 136.203C929.836 136.958 929.676 137.53 929.864 137.949C930.146 138.584 931.194 138.728 932.034 138.541C934.049 138.096 935.661 136.483 936.953 135.189C937.178 134.962 937.557 134.951 937.799 135.162C938.041 135.373 938.052 135.728 937.827 135.955C936.424 137.359 934.676 139.11 932.31 139.63C932.005 139.7 931.683 139.734 931.362 139.734Z" fill="#FF8570"/>
<path d="M582.708 144.344C581.575 142.63 579.642 141.357 577.538 140.935L577.726 140.113C580.063 140.583 582.21 141.998 583.468 143.901L582.708 144.344Z" fill="#0057C2"/>
<path d="M584.928 150.411L583.493 159.516L584.38 159.638L585.815 150.533L584.928 150.411Z" fill="#0057C2"/>
<path d="M619.655 145.654L618.77 145.789L621.125 159.331L622.011 159.195L619.655 145.654Z" fill="#0057C2"/>
<path d="M648.466 125.499C648.372 125.499 648.275 125.478 648.184 125.432C647.894 125.286 647.783 124.947 647.939 124.674C648.773 123.214 648.887 121.423 648.247 119.881C648.139 119.624 648.247 119.331 648.503 119.192C649.963 118.391 651.185 117.206 652.033 115.762C652.315 115.282 652.306 115.06 652.25 114.959C652.121 114.732 651.552 114.748 651.054 114.881C650.445 115.047 649.838 115.266 649.257 115.53C648.961 115.666 648.603 115.548 648.457 115.271C648.312 114.993 648.437 114.657 648.734 114.521C649.377 114.227 650.046 113.984 650.724 113.803C651.936 113.474 652.904 113.712 653.309 114.433C653.733 115.191 653.243 116.026 653.081 116.301C652.21 117.783 650.985 119.024 649.528 119.915C650.103 121.653 649.915 123.596 648.995 125.203C648.887 125.392 648.679 125.499 648.466 125.499Z" fill="#FF8570"/>
<path d="M609.216 113.015C607.306 113.015 605.335 111.902 604.248 110.143C603.271 108.563 602.924 106.556 603.223 104.178L603.24 104.05L603.331 103.951C604.789 102.371 606.793 101.388 608.974 101.183C611.069 100.985 613.258 101.522 614.984 102.656L615.186 102.79L615.174 103.019C615.157 103.398 615.146 103.783 615.135 104.172C615.095 105.707 615.052 107.295 614.522 108.822C613.751 111.043 611.94 112.668 609.902 112.965C609.674 112.999 609.446 113.015 609.216 113.015ZM604.097 104.405C603.852 106.54 604.163 108.328 605.022 109.719C606.059 111.395 608.009 112.391 609.762 112.132C611.468 111.884 612.999 110.482 613.666 108.56C614.155 107.148 614.195 105.624 614.232 104.151C614.241 103.836 614.249 103.524 614.261 103.217C612.743 102.285 610.861 101.85 609.056 102.021C607.152 102.2 605.395 103.046 604.097 104.405Z" fill="#002169"/>
<path d="M594.622 113.144C594.392 113.144 594.164 113.128 593.939 113.096C591.904 112.799 590.09 111.174 589.319 108.953C588.789 107.426 588.746 105.838 588.707 104.303C588.695 103.914 588.687 103.529 588.667 103.15L588.655 102.921L588.857 102.787C590.583 101.653 592.772 101.116 594.867 101.314C597.048 101.519 599.052 102.502 600.51 104.082L600.601 104.181L600.618 104.309C600.914 106.687 600.57 108.694 599.593 110.274C598.503 112.031 596.533 113.144 594.622 113.144ZM589.572 103.348C589.583 103.655 589.592 103.967 589.6 104.282C589.64 105.758 589.68 107.282 590.167 108.692C590.833 110.613 592.365 112.015 594.07 112.263C595.824 112.519 597.774 111.526 598.81 109.85C599.67 108.459 599.983 106.671 599.735 104.536C598.437 103.177 596.681 102.331 594.77 102.152C592.974 101.981 591.092 102.416 589.572 103.348Z" fill="#002169"/>
<path d="M600.288 104.805L599.844 104.074C601.062 103.422 602.614 103.356 603.892 103.903L603.519 104.669C602.5 104.231 601.262 104.285 600.288 104.805Z" fill="#002169"/>
<path d="M928.911 136.801C927.892 136.801 926.839 136.344 926.17 135.533C925.338 134.524 925.102 133.088 925.532 131.694C925.865 130.624 926.56 129.588 927.661 128.531C929.071 127.175 930.804 126.084 932.675 125.374C933.589 125.027 934.952 124.616 936.256 125.053C936.567 125.158 936.729 125.478 936.618 125.769C936.507 126.06 936.165 126.212 935.855 126.108C935.155 125.873 934.286 125.969 933.125 126.409C931.405 127.063 929.814 128.067 928.518 129.311C927.559 130.234 926.955 131.115 926.682 132.004C926.36 133.04 926.525 134.129 927.115 134.844C927.738 135.599 928.894 135.896 929.697 135.506C929.99 135.365 930.352 135.471 930.503 135.746C930.653 136.021 930.54 136.36 930.246 136.502C929.836 136.705 929.378 136.801 928.911 136.801Z" fill="#FF8570"/>
<path d="M703.952 209.404L702.756 209.411L702.823 218.369L704.019 218.362L703.952 209.404Z" fill="#9E9E9E"/>
<path d="M697.789 196.9C697.786 196.9 697.784 196.9 697.784 196.9C697.453 196.898 697.189 196.644 697.191 196.334C697.197 195.819 697.322 195.288 697.556 194.8C698.034 193.785 698.894 193.014 699.5 192.52C702.47 190.102 706.424 188.778 710.358 188.895C710.689 188.906 710.948 189.165 710.936 189.472C710.925 189.782 710.655 190.022 710.321 190.014C706.689 189.91 703.03 191.129 700.286 193.364C699.449 194.044 698.945 194.629 698.649 195.253C698.481 195.606 698.393 195.985 698.387 196.348C698.381 196.655 698.117 196.9 697.789 196.9Z" fill="#FF8570"/>
<path d="M652.444 96.1809C652.225 96.1809 652.017 96.0661 651.911 95.8766L648.387 89.4545C648.236 89.1796 648.35 88.8406 648.646 88.6992C648.939 88.5577 649.301 88.6671 649.452 88.9421L652.014 93.6078L652.66 85.8351C652.683 85.5468 652.939 85.3226 653.247 85.3173L670.1 85.077C670.425 85.0744 670.701 85.3199 670.707 85.6296C670.712 85.9392 670.448 86.1928 670.117 86.1981L653.81 86.4303L653.042 95.6631C653.022 95.914 652.825 96.1195 652.563 96.1702C652.523 96.1783 652.484 96.1809 652.444 96.1809Z" fill="#99E7FF"/>
<path d="M659.996 95.2494C659.834 95.2494 659.672 95.188 659.552 95.0652C658.015 93.4744 656.68 91.7154 655.583 89.8309C655.424 89.5587 655.532 89.2197 655.823 89.0702C656.113 88.9234 656.475 89.0222 656.634 89.2944C657.684 91.1015 658.966 92.7884 660.44 94.3125C660.662 94.5421 660.642 94.8971 660.4 95.1053C660.284 95.2014 660.141 95.2494 659.996 95.2494Z" fill="#99E7FF"/>
<path d="M656.108 96.2288C655.991 96.2288 655.871 96.1968 655.769 96.1301C655.498 95.9539 655.427 95.6042 655.615 95.3507C656.244 94.4938 656.97 93.3274 657.668 92.201C658.379 91.0559 659.114 89.8708 659.772 88.9793C659.959 88.7257 660.33 88.659 660.603 88.8351C660.873 89.0113 660.944 89.361 660.757 89.6145C660.127 90.4714 659.401 91.6378 658.704 92.7642C657.992 93.9093 657.258 95.0944 656.6 95.9859C656.486 96.1434 656.298 96.2288 656.108 96.2288Z" fill="#99E7FF"/>
<path d="M665.747 92.3798C665.741 92.3798 665.735 92.3798 665.73 92.3798L662.242 92.2864C661.912 92.2784 661.653 92.0194 661.661 91.7098C661.67 91.4002 661.946 91.1626 662.276 91.1653L665.764 91.2587C666.094 91.2667 666.353 91.5256 666.345 91.8353C666.333 92.1396 666.068 92.3798 665.747 92.3798Z" fill="#99E7FF"/>
<path d="M670.399 95.3482C669.032 95.3482 667.657 94.6755 666.977 93.5465C666.035 91.9823 666.575 89.8096 668.161 88.8006C669.744 87.7917 672.098 88.12 673.303 89.5186C673.764 90.0551 674.017 90.6824 674.014 91.2883C674.012 92.025 673.602 92.7244 672.975 93.0687C672.457 93.3543 671.831 93.3783 671.316 93.1728C671.159 93.2982 670.968 93.397 670.752 93.4584C670.225 93.6079 669.656 93.5038 669.269 93.1888C668.944 92.9219 668.748 92.5375 668.716 92.1051C668.685 91.6353 668.85 91.1735 669.169 90.8346C669.71 90.2633 670.644 90.0391 671.495 90.2794C671.811 90.3674 671.99 90.6797 671.896 90.9787C671.802 91.275 671.466 91.4431 671.15 91.355C670.743 91.2403 670.299 91.3337 670.066 91.5793C669.958 91.6914 669.901 91.8675 669.912 92.0357C669.918 92.1131 669.943 92.2546 670.054 92.348C670.131 92.4094 670.276 92.4281 670.407 92.3907C670.484 92.3693 670.573 92.324 670.59 92.2572C670.649 92.0571 670.817 91.9049 671.034 91.8595C671.247 91.8142 671.472 91.8836 671.617 92.0384C671.777 92.2092 672.127 92.2439 672.369 92.1104C672.637 91.9636 672.816 91.6326 672.819 91.291C672.822 90.944 672.662 90.5676 672.372 90.2313C671.558 89.2864 669.904 89.0569 668.833 89.7375C667.763 90.4208 667.381 91.9449 668.019 93.002C668.657 94.059 670.248 94.5421 671.424 94.0323C671.723 93.9015 672.079 94.0243 672.218 94.3072C672.358 94.5875 672.227 94.9211 671.925 95.0519C671.441 95.2521 670.92 95.3482 670.399 95.3482Z" fill="#99E7FF"/>
<path d="M679.398 105.891H668.808C668.478 105.891 668.21 105.64 668.21 105.331C668.21 105.021 668.478 104.77 668.808 104.77H679.398C679.729 104.77 679.996 105.021 679.996 105.331C679.996 105.64 679.729 105.891 679.398 105.891Z" fill="#99E7FF"/>
<path d="M671.988 101.735C671.772 101.735 671.572 101.626 671.467 101.45C671.362 101.271 671.364 101.052 671.481 100.879L673.787 97.3979C673.961 97.1337 674.331 97.0536 674.61 97.2164C674.892 97.3792 674.977 97.7262 674.803 97.9878L673.07 100.606L675.917 100.585C675.919 100.585 675.919 100.585 675.922 100.585C676.25 100.585 676.517 100.833 676.52 101.14C676.523 101.45 676.258 101.703 675.928 101.706L671.996 101.735C671.991 101.735 671.988 101.735 671.988 101.735Z" fill="#99E7FF"/>
<path d="M676.233 103.372C675.902 103.372 675.635 103.121 675.635 102.811V99.5522C675.635 99.2426 675.902 98.9917 676.233 98.9917C676.563 98.9917 676.83 99.2426 676.83 99.5522V102.811C676.83 103.121 676.563 103.372 676.233 103.372Z" fill="#99E7FF"/>
<path d="M674.342 113.531C674.268 113.531 674.197 113.531 674.129 113.531C672.759 113.52 671.922 113.128 671.643 112.362C671.535 112.068 671.703 111.75 672.016 111.649C672.329 111.547 672.668 111.705 672.776 111.999C672.904 112.351 673.687 112.407 674.14 112.41C674.658 112.415 675.193 112.418 675.612 112.228C675.902 112.097 676.167 111.788 676.101 111.537C676.056 111.358 675.837 111.187 675.561 111.115C675.219 111.024 674.809 111.051 674.41 111.078C674.12 111.096 673.861 110.923 673.79 110.661C673.716 110.4 673.852 110.127 674.111 110.013C674.567 109.81 675.04 109.602 675.327 109.276C675.555 109.02 675.626 108.657 675.487 108.465C675.361 108.294 675.042 108.211 674.729 108.264C674.339 108.331 673.949 108.561 673.573 108.782C673.294 108.948 672.924 108.868 672.748 108.606C672.571 108.344 672.657 107.997 672.936 107.832C673.386 107.565 673.895 107.266 674.513 107.159C675.304 107.023 676.073 107.287 676.469 107.827C676.921 108.443 676.83 109.335 676.244 109.991C676.207 110.034 676.17 110.074 676.13 110.111C676.705 110.333 677.129 110.76 677.263 111.267C677.488 112.124 676.862 112.906 676.13 113.237C675.535 113.504 674.892 113.531 674.342 113.531Z" fill="#99E7FF"/>
<path d="M646.943 105.504C646.88 105.504 646.818 105.496 646.755 105.475C644.728 104.845 642.9 103.727 641.465 102.245C641.243 102.016 641.263 101.661 641.505 101.452C641.75 101.244 642.129 101.263 642.351 101.49C643.646 102.83 645.3 103.839 647.131 104.407C647.444 104.503 647.615 104.821 647.509 105.115C647.427 105.357 647.193 105.504 646.943 105.504Z" fill="#99E7FF"/>
<path d="M641.879 107.026C641.762 107.026 641.645 106.994 641.543 106.93C641.269 106.756 641.198 106.407 641.383 106.151L645.104 101.007C645.289 100.751 645.662 100.684 645.935 100.858C646.209 101.031 646.28 101.381 646.095 101.637L642.374 106.78C642.26 106.941 642.069 107.026 641.879 107.026Z" fill="#99E7FF"/>
</g>
<defs>
<clipPath id="clip0_275_1906">
<rect width="487" height="219" fill="white" transform="translate(456 24)"/>
</clipPath>
</defs>
</svg>
