<svg width="21" height="22" viewBox="0 0 21 22" fill="none"
    xmlns="http://www.w3.org/2000/svg">
    <path d="M18 12V8.368C18 4.895 18 3.158 16.975 2.079C15.95 1 14.3 1 11 1H8C4.7 1 3.05 1 2.025 2.08C1 3.157 1 4.894 1 8.367V13.631C1 17.104 1 18.841 2.025 19.92C3.05 20.999 4.7 21 8 21H9.5M12 19C12 19 13 19 14 21C14 21 17.177 16 20 15" stroke="black" stroke-width="2" stroke-linecap="round" stroke-linejoin="round"/>
    <path d="M5.5 1L5.582 1.493C5.782 2.69 5.882 3.289 6.302 3.645C6.72 4 7.327 4 8.541 4H10.458C11.671 4 12.278 4 12.698 3.645C13.118 3.289 13.218 2.69 13.417 1.493L13.5 1M5.5 15H9.5M5.5 10H13.5" stroke="black" stroke-width="1.5" stroke-linecap="round" stroke-linejoin="round"/>
</svg>
