<svg width="25" height="25" viewBox="0 0 25 25" fill="none" xmlns="http://www.w3.org/2000/svg">
<path d="M12.5 17.5588C13.0304 17.5588 13.5391 17.3481 13.9142 16.973C14.2893 16.5979 14.5 16.0892 14.5 15.5588C14.5 15.0283 14.2893 14.5196 13.9142 14.1446C13.5391 13.7695 13.0304 13.5588 12.5 13.5588C11.9696 13.5588 11.4609 13.7695 11.0858 14.1446C10.7107 14.5196 10.5 15.0283 10.5 15.5588C10.5 16.0892 10.7107 16.5979 11.0858 16.973C11.4609 17.3481 11.9696 17.5588 12.5 17.5588ZM18.5 8.55878C19.0304 8.55878 19.5391 8.76949 19.9142 9.14456C20.2893 9.51964 20.5 10.0283 20.5 10.5588V20.5588C20.5 21.0892 20.2893 21.5979 19.9142 21.973C19.5391 22.3481 19.0304 22.5588 18.5 22.5588H6.5C5.96957 22.5588 5.46086 22.3481 5.08579 21.973C4.71071 21.5979 4.5 21.0892 4.5 20.5588V10.5588C4.5 10.0283 4.71071 9.51964 5.08579 9.14456C5.46086 8.76949 5.96957 8.55878 6.5 8.55878H7.5V6.55878C7.5 5.23269 8.02678 3.96092 8.96447 3.02324C9.90215 2.08556 11.1739 1.55878 12.5 1.55878C13.1566 1.55878 13.8068 1.68811 14.4134 1.93938C15.02 2.19065 15.5712 2.55895 16.0355 3.02324C16.4998 3.48754 16.8681 4.03873 17.1194 4.64536C17.3707 5.25199 17.5 5.90217 17.5 6.55878V8.55878H18.5ZM12.5 3.55878C11.7044 3.55878 10.9413 3.87485 10.3787 4.43746C9.81607 5.00007 9.5 5.76313 9.5 6.55878V8.55878H15.5V6.55878C15.5 5.76313 15.1839 5.00007 14.6213 4.43746C14.0587 3.87485 13.2956 3.55878 12.5 3.55878Z" fill="black"/>
</svg>
