<svg width="21" height="24" viewBox="0 0 21 24" fill="none" xmlns="http://www.w3.org/2000/svg">
<path d="M3.60937 24C2.625 24 1.77734 23.7123 1.06641 23.1368C0.355469 22.5613 0 21.8491 0 21V5.20755C0 4.49057 0.257031 3.84906 0.771094 3.28302C1.28516 2.71698 1.95781 2.35849 2.78906 2.20755L15.75 0V18.1132L3.31406 20.2642C3.11719 20.3019 2.95312 20.3915 2.82187 20.533C2.69062 20.6745 2.625 20.8302 2.625 21C2.625 21.2075 2.72344 21.3821 2.92031 21.5236C3.11719 21.6651 3.34687 21.7358 3.60937 21.7358H18.375V3.62264H21V24H3.60937ZM6.5625 17.4057L13.125 16.3019V2.77358L6.5625 3.87736V17.4057ZM3.9375 17.8585V4.33019L3.44531 4.41509C3.20469 4.45283 3.00781 4.54245 2.85469 4.68396C2.70156 4.82547 2.625 5 2.625 5.20755V18.1415C2.73438 18.1038 2.84922 18.0708 2.96953 18.0425C3.08984 18.0142 3.20469 17.9906 3.31406 17.9717L3.9375 17.8585Z" fill="black"/>
</svg>
