<svg width="36" height="43" viewBox="0 0 36 43" fill="none" xmlns="http://www.w3.org/2000/svg">
<path d="M32 24.9099V17.2C32 10.2834 27.63 4.45695 21.71 2.7047C21.124 1.118 19.692 0 18 0C16.308 0 14.876 1.118 14.29 2.7047C8.37 4.4591 4 10.2834 4 17.2V24.9099L0.586002 28.5799C0.399917 28.7793 0.252341 29.0162 0.151771 29.2771C0.0512003 29.5379 -0.000378898 29.8176 2.09535e-06 30.1V34.4C2.09535e-06 34.9702 0.210716 35.5171 0.585788 35.9203C0.960861 36.3235 1.46957 36.55 2 36.55H34C34.5304 36.55 35.0391 36.3235 35.4142 35.9203C35.7893 35.5171 36 34.9702 36 34.4V30.1C36.0004 29.8176 35.9488 29.5379 35.8482 29.2771C35.7477 29.0162 35.6001 28.7793 35.414 28.5799L32 24.9099ZM32 32.25H4V30.9901L7.414 27.32C7.60008 27.1207 7.74766 26.8838 7.84823 26.6229C7.9488 26.3621 8.00038 26.0824 8 25.8V17.2C8 11.2724 12.486 6.45 18 6.45C23.514 6.45 28 11.2724 28 17.2V25.8C28 26.3719 28.21 26.918 28.586 27.32L32 30.9901V32.25ZM18 43C19.2386 43.0017 20.4469 42.5885 21.457 41.8178C22.467 41.0472 23.2287 39.9574 23.636 38.7H12.364C12.7713 39.9574 13.533 41.0472 14.543 41.8178C15.5531 42.5885 16.7614 43.0017 18 43Z" fill="black" fill-opacity="0.68"/>
</svg>
