<svg width="26" height="26" viewBox="0 0 26 26" fill="none"
    xmlns="http://www.w3.org/2000/svg">
    <path d="M9.75032 23.8332V18.4166C9.75032 17.395 9.75032 16.8847 9.43291 16.5673C9.11549 16.2499 8.60524 16.2499 7.58366 16.2499H7.04199C5.50908 16.2499 4.74316 16.2499 4.26866 16.7266C3.79199 17.2021 3.79199 17.9681 3.79199 19.4999V23.8332H9.75032ZM9.75032 23.8332H16.2503M9.75032 23.8332V17.3332C9.75032 15.8014 9.75032 15.0355 10.227 14.5599C10.7015 14.0832 11.4674 14.0832 13.0003 14.0832C14.5332 14.0832 15.2981 14.0832 15.7737 14.5599C16.2503 15.0355 16.2503 15.8014 16.2503 17.3332V23.8332M16.2503 23.8332H22.2087V21.6666C22.2087 20.1347 22.2087 19.3688 21.732 18.8932C21.2564 18.4166 20.4905 18.4166 18.9587 18.4166H18.417C17.3954 18.4166 16.8852 18.4166 16.5677 18.734C16.2503 19.0514 16.2503 19.5616 16.2503 20.5832V23.8332ZM2.16699 23.8332H23.8337M13.7489 2.79272L14.5116 4.33106C14.5763 4.44632 14.6645 4.54668 14.7705 4.62563C14.8765 4.70458 14.9979 4.76034 15.1269 4.78931L16.5092 5.02006C17.3932 5.16847 17.6012 5.81522 16.9642 6.45331L15.8896 7.53664C15.7954 7.64329 15.7262 7.76967 15.6873 7.90651C15.6483 8.04336 15.6404 8.18719 15.6642 8.32747L15.9719 9.66864C16.2146 10.7303 15.6556 11.1409 14.7239 10.5862L13.4282 9.81272C13.2957 9.74397 13.1486 9.70808 12.9992 9.70808C12.8499 9.70808 12.7028 9.74397 12.5702 9.81272L11.2746 10.5862C10.3472 11.1409 9.78391 10.726 10.0266 9.66864L10.3342 8.32747C10.3581 8.18719 10.3502 8.04336 10.3112 7.90651C10.2722 7.76967 10.2031 7.64329 10.1089 7.53664L9.03533 6.45331C8.40266 5.81522 8.60633 5.16847 9.49033 5.02006L10.8716 4.78931C10.9999 4.75967 11.1205 4.70348 11.2257 4.62436C11.331 4.54525 11.4185 4.44497 11.4826 4.32997L12.2452 2.79164C12.6612 1.95747 13.3372 1.95747 13.7489 2.79164" stroke="black" stroke-width="1.5" stroke-linecap="round" stroke-linejoin="round"/>
</svg>
