<svg width="24" height="24" viewBox="0 0 24 24" fill="none" xmlns="http://www.w3.org/2000/svg">
<path d="M8.75032 22.8332V17.4166C8.75032 16.395 8.75032 15.8847 8.43291 15.5673C8.11549 15.2499 7.60524 15.2499 6.58366 15.2499H6.04199C4.50908 15.2499 3.74316 15.2499 3.26866 15.7266C2.79199 16.2021 2.79199 16.9681 2.79199 18.4999V22.8332H8.75032ZM8.75032 22.8332H15.2503M8.75032 22.8332V16.3332C8.75032 14.8014 8.75032 14.0355 9.22699 13.5599C9.70149 13.0832 10.4674 13.0832 12.0003 13.0832C13.5332 13.0832 14.2981 13.0832 14.7737 13.5599C15.2503 14.0355 15.2503 14.8014 15.2503 16.3332V22.8332M15.2503 22.8332H21.2087V20.6666C21.2087 19.1347 21.2087 18.3688 20.732 17.8932C20.2564 17.4166 19.4905 17.4166 17.9587 17.4166H17.417C16.3954 17.4166 15.8852 17.4166 15.5677 17.734C15.2503 18.0514 15.2503 18.5616 15.2503 19.5832V22.8332ZM1.16699 22.8332H22.8337M12.7489 1.79272L13.5116 3.33106C13.5763 3.44632 13.6645 3.54668 13.7705 3.62563C13.8765 3.70458 13.9979 3.76034 14.1269 3.78931L15.5092 4.02006C16.3932 4.16847 16.6012 4.81522 15.9642 5.45331L14.8896 6.53664C14.7954 6.64329 14.7262 6.76967 14.6873 6.90651C14.6483 7.04336 14.6404 7.18719 14.6642 7.32747L14.9719 8.66864C15.2146 9.73031 14.6556 10.1409 13.7239 9.58622L12.4282 8.81272C12.2957 8.74397 12.1486 8.70808 11.9992 8.70808C11.8499 8.70808 11.7028 8.74397 11.5702 8.81272L10.2746 9.58622C9.34724 10.1409 8.78391 9.72597 9.02658 8.66864L9.33424 7.32747C9.35808 7.18719 9.35022 7.04336 9.31123 6.90651C9.27223 6.76967 9.20311 6.64329 9.10891 6.53664L8.03533 5.45331C7.40266 4.81522 7.60633 4.16847 8.49033 4.02006L9.87157 3.78931C9.99985 3.75967 10.1205 3.70348 10.2257 3.62436C10.331 3.54525 10.4185 3.44497 10.4826 3.32997L11.2452 1.79164C11.6612 0.957474 12.3372 0.957474 12.7489 1.79164" stroke="black" stroke-width="1.5" stroke-linecap="round" stroke-linejoin="round"/>
</svg>
