<svg width="17" height="17" viewBox="0 0 17 17" fill="none" xmlns="http://www.w3.org/2000/svg">
<path d="M8.5 8.55878C7.4 8.55878 6.45833 8.16711 5.675 7.38378C4.89167 6.60044 4.5 5.65878 4.5 4.55878C4.5 3.45878 4.89167 2.51711 5.675 1.73378C6.45833 0.950444 7.4 0.558777 8.5 0.558777C9.6 0.558777 10.5417 0.950444 11.325 1.73378C12.1083 2.51711 12.5 3.45878 12.5 4.55878C12.5 5.65878 12.1083 6.60044 11.325 7.38378C10.5417 8.16711 9.6 8.55878 8.5 8.55878ZM0.5 16.5588V13.7588C0.5 13.1921 0.646 12.6714 0.938 12.1968C1.23 11.7221 1.61733 11.3594 2.1 11.1088C3.13333 10.5921 4.18333 10.2048 5.25 9.94678C6.31667 9.68878 7.4 9.55944 8.5 9.55878C9.6 9.55811 10.6833 9.68744 11.75 9.94678C12.8167 10.2061 13.8667 10.5934 14.9 11.1088C15.3833 11.3588 15.771 11.7214 16.063 12.1968C16.355 12.6721 16.5007 13.1928 16.5 13.7588V16.5588H0.5Z" fill="black"/>
</svg>
